<svg width="25" height="24" viewBox="0 0 25 24" fill="none" xmlns="http://www.w3.org/2000/svg">
<g clip-path="url(#clip0)">
<path d="M14.5559 23.8438C14.4559 23.86 14.3556 23.8751 14.2549 23.8888C14.3556 23.8751 14.4559 23.86 14.5559 23.8438Z" fill="#F4F4F4"/>
<path d="M14.7962 23.8027C14.7484 23.8115 14.7006 23.8196 14.6528 23.8278C14.7006 23.8196 14.7484 23.8115 14.7962 23.8027Z" fill="#F4F4F4"/>
<path d="M13.9866 23.9221C13.8696 23.9353 13.7519 23.947 13.6338 23.9569C13.7519 23.947 13.8696 23.9353 13.9866 23.9221Z" fill="#F4F4F4"/>
<path d="M14.2175 23.894C14.1613 23.9016 14.1047 23.9085 14.0483 23.9151C14.1047 23.9085 14.1613 23.9016 14.2175 23.894Z" fill="#F4F4F4"/>
<path d="M15.1228 23.738C15.0807 23.747 15.0384 23.756 14.9961 23.7646C15.0384 23.756 15.0807 23.747 15.1228 23.738Z" fill="#F4F4F4"/>
<path d="M15.9332 23.5366C15.8992 23.5463 15.8651 23.5555 15.8311 23.565C15.8651 23.5555 15.8992 23.5463 15.9332 23.5366Z" fill="#F4F4F4"/>
<path d="M15.6885 23.6035C15.6515 23.6132 15.6143 23.6231 15.5771 23.6324C15.6143 23.6231 15.6515 23.6134 15.6885 23.6035Z" fill="#F4F4F4"/>
<path d="M15.3673 23.6838C15.3281 23.693 15.2886 23.7016 15.249 23.7104C15.2886 23.7016 15.3281 23.693 15.3673 23.6838Z" fill="#F4F4F4"/>
<path d="M13.6301 23.9573C13.567 23.9626 13.5038 23.9673 13.4404 23.9716C13.5038 23.9673 13.567 23.9626 13.6301 23.9573Z" fill="#F4F4F4"/>
<path d="M24.6211 12C24.6211 5.3736 19.2475 0 12.6211 0C5.99469 0 0.621094 5.3736 0.621094 12C0.621094 18.6264 5.99469 24 12.6211 24C12.6916 24 12.7617 23.9985 12.832 23.9973V14.6558H10.2539V11.6512H12.832V9.44019C12.832 6.87598 14.3974 5.48035 16.6848 5.48035C17.7801 5.48035 18.7216 5.56201 18.9961 5.59845V8.27838H17.4188C16.1744 8.27838 15.9335 8.86981 15.9335 9.73755V11.6512H18.9089L18.5211 14.6558H15.9335V23.5364C20.9493 22.0984 24.6211 17.4774 24.6211 12Z" fill="#F4F4F4"/>
<path d="M13.4142 23.9731C13.2893 23.9812 13.1639 23.9876 13.0381 23.9918C13.1639 23.9876 13.2893 23.9812 13.4142 23.9731Z" fill="#F4F4F4"/>
<path d="M13.0312 23.9922C12.965 23.9944 12.8985 23.996 12.832 23.9971C12.8985 23.996 12.965 23.9944 13.0312 23.9922Z" fill="#F4F4F4"/>
</g>
<defs>
<clipPath id="clip0">
<rect width="24" height="24" fill="white" transform="translate(0.621094)"/>
</clipPath>
</defs>
</svg>
