<svg width="95" height="54" viewBox="0 0 95 54" fill="none" xmlns="http://www.w3.org/2000/svg">
<path d="M86.0347 43.1763C86.0347 40.2672 83.5675 37.8 80.6584 37.8C77.7306 37.8 75.2822 40.1036 75.2822 43.1763C75.2822 46.0854 77.7493 48.5525 80.6584 48.5525C83.5675 48.5525 86.0347 46.0854 86.0347 43.1763ZM85.302 42.9941C85.302 45.5504 83.2147 47.6377 80.6584 47.6377C78.1022 47.6377 76.0149 45.5504 76.0149 42.9941C76.0149 40.4379 78.1022 38.3505 80.6584 38.3505C83.2147 38.3505 85.302 40.4379 85.302 42.9941Z" stroke="#222D48" stroke-width="2" stroke-linejoin="round"/>
<path d="M27.1909 43.1763C27.1909 40.2672 24.7238 37.8 21.8147 37.8C18.8868 37.8 16.4384 40.1036 16.4384 43.1763C16.4384 46.0854 18.9056 48.5525 21.8147 48.5525C24.7238 48.5525 27.1909 46.0854 27.1909 43.1763ZM26.4582 42.9941C26.4582 45.5504 24.3709 47.6377 21.8147 47.6377C19.2584 47.6377 17.1711 45.5504 17.1711 42.9941C17.1711 40.4379 19.2584 38.3505 21.8147 38.3505C24.3709 38.3505 26.4582 40.4379 26.4582 42.9941Z" stroke="#222D48" stroke-width="2" stroke-linejoin="round"/>
<path d="M3.50383 34.6139C3.50383 35.1661 3.05611 35.6139 2.50383 35.6139H1.61472C1.61463 35.6139 1.61455 35.6139 1.61446 35.614C1.59897 35.6212 1.57425 35.6369 1.54856 35.6626C1.52287 35.6882 1.50722 35.713 1.49999 35.7285C1.49995 35.7285 1.49991 35.7286 1.49987 35.7287V39.3287C1.49991 39.3288 1.49995 39.3289 1.49999 39.329C1.50722 39.3445 1.52287 39.3692 1.54856 39.3949C1.57426 39.4206 1.59897 39.4362 1.61446 39.4434C1.61455 39.4435 1.61463 39.4435 1.61472 39.4436H3.05037C3.50924 39.4436 3.90922 39.7559 4.02052 40.201L4.37768 41.6297H6.51175H12.9259C13.7033 37.4048 17.2189 34.3426 21.6325 34.3426C26.0511 34.3426 29.5457 37.5622 30.3331 41.6297H58.0682C58.6205 41.6297 59.0682 42.0774 59.0682 42.6297V43.998H71.4603V43.9961V43.9938V43.9914V43.989V43.9866V43.9842V43.9818V43.9794V43.977V43.9745V43.9721V43.9697V43.9672V43.9648V43.9623V43.9598V43.9574V43.9549V43.9524V43.9499V43.9474V43.9449V43.9424V43.9399V43.9374V43.9348V43.9323V43.9298V43.9272V43.9247V43.9221V43.9196V43.917V43.9144V43.9119V43.9093V43.9067V43.9041V43.9015V43.8989V43.8963V43.8937V43.8911V43.8885V43.8859V43.8832V43.8806V43.878V43.8753V43.8727V43.87V43.8674V43.8647V43.8621V43.8594V43.8567V43.8541V43.8514V43.8487V43.846V43.8433V43.8406V43.8379V43.8352V43.8325V43.8298V43.8271V43.8244V43.8217V43.8189V43.8162V43.8135V43.8107V43.808V43.8053V43.8025V43.7998V43.797V43.7943V43.7915V43.7888V43.786V43.7832V43.7805V43.7777V43.7749V43.7721V43.7694V43.7666V43.7638V43.761V43.7582V43.7554V43.7526V43.7498V43.747V43.7442V43.7414V43.7386V43.7358V43.733V43.7302V43.7274V43.7246V43.7218V43.719V43.7161V43.7133V43.7105V43.7077V43.7049V43.702V43.6992V43.6964V43.6935V43.6907V43.6879V43.685V43.6822V43.6794V43.6765V43.6737V43.6709V43.668V43.6652V43.6623V43.6595V43.6567V43.6538V43.651V43.6481V43.6453V43.6424V43.6396V43.6367V43.6339V43.6311V43.6282V43.6254V43.6225V43.6197V43.6168V43.614V43.6111V43.6083V43.6054V43.6026V43.5997V43.5969V43.5941V43.5912V43.5884V43.5855V43.5827V43.5798V43.577V43.5742V43.5713V43.5685V43.5656V43.5628V43.56V43.5571V43.5543V43.5515V43.5486V43.5458V43.543V43.5402V43.5373V43.5345V43.5317V43.5289V43.526V43.5232V43.5204V43.5176V43.5148V43.512V43.5092V43.5064V43.5035V43.5007V43.4979V43.4951V43.4923V43.4896V43.4868V43.484V43.4812V43.4784V43.4756V43.4728V43.4701V43.4673V43.4645V43.4617V43.459V43.4562V43.4534V43.4507V43.4479V43.4452V43.4424V43.4397V43.4369V43.4342V43.4315V43.4287V43.426V43.4233V43.4206V43.4178V43.4151V43.4124V43.4097V43.407V43.4043V43.4016V43.3989V43.3962V43.3935V43.3909V43.3882V43.3855V43.3828V43.3802V43.3775V43.3748V43.3722V43.3695V43.3669V43.3643V43.3616V43.359V43.3564V43.3538V43.3511V43.3485V43.3459V43.3433V43.3407V43.3381V43.3355V43.333V43.3304V43.3278V43.3252V43.3227V43.3201V43.3176V43.315V43.3125V43.31V43.3074V43.3049V43.3024V43.2999V43.2974V43.2949V43.2924V43.2899V43.2874V43.2849V43.2825V43.28V43.2776V43.2751V43.2727V43.2702V43.2678V43.2654V43.2629V43.2605V43.2581V43.2557V43.2533V43.2509V43.2486V43.2462V43.2438V43.2415V43.2391V43.2368V43.2344V43.2321V43.2298V43.2274V43.2251V43.2228V43.2205V43.2183V43.216V43.2137V43.2114V43.2092V43.2069V43.2047V43.2024V43.2002V43.198V43.1958V43.1936V43.1914V43.1892V43.187V43.1848V43.1827V43.1805V43.1784V43.1762C71.4603 38.0436 75.775 33.9426 81.0873 34.3446C84.8013 34.546 87.6739 37.4269 88.7114 40.7188H88.9494V39.3505C88.9494 39.1596 88.914 38.7899 88.8229 38.4436C88.778 38.2729 88.7274 38.1387 88.6793 38.0468C88.6599 38.0099 88.6454 37.9882 88.6375 37.9773C88.3382 37.7759 87.9654 37.4954 87.6773 37.2738C87.5255 37.157 87.3914 37.0521 87.2952 36.9763C87.2471 36.9384 87.2083 36.9077 87.1814 36.8863L87.1502 36.8614L87.1418 36.8547L87.1395 36.8529L87.1389 36.8524L87.1387 36.8522L87.1386 36.8522L87.7632 36.0713L87.1385 36.8522C86.9013 36.6624 86.7632 36.3751 86.7632 36.0713C86.7632 35.7987 86.7632 34.9906 86.7408 34.1627C86.7296 33.7481 86.713 33.3369 86.6888 32.9898C86.6629 32.6191 86.6326 32.3926 86.6109 32.3059C86.6026 32.2726 86.596 32.2388 86.5911 32.2048C86.5211 31.7147 86.4122 31.6109 86.3382 31.5474C86.1662 31.4 85.8978 31.2848 85.1832 30.9785L85.1832 30.9786L85.1763 30.9756C82.2842 29.7103 79.2609 28.467 74.989 27.577C74.5851 27.4929 74.2744 27.1693 74.2065 26.7624C73.8572 24.6664 73.3343 22.7352 72.6292 20.6118C72.5019 20.3753 72.3214 20.1446 72.1283 19.9791C71.9082 19.7904 71.7673 19.7644 71.7316 19.7644C71.6874 19.7644 71.6432 19.7614 71.5994 19.7556C71.1474 19.6953 70.6054 19.6453 69.9972 19.6037C70.2578 19.6378 70.5342 19.7247 70.7833 19.8907C71.1259 20.1191 71.4152 20.5064 71.4523 21.0204L72.1689 24.9617C72.1796 25.0207 72.185 25.0806 72.185 25.1406V25.1417V25.1427V25.1438V25.1448V25.1459V25.1469V25.148V25.149V25.15V25.1511V25.1521V25.1531V25.1541V25.1551V25.1561V25.1571V25.1581V25.1591V25.1601V25.1611V25.1621V25.1631V25.1641V25.165V25.166V25.167V25.1679V25.1689V25.1698V25.1708V25.1717V25.1727V25.1736V25.1745V25.1755V25.1764V25.1773V25.1782V25.1791V25.18V25.1809V25.1818V25.1827V25.1836V25.1845V25.1854V25.1863V25.1872V25.1881V25.1889V25.1898V25.1907V25.1915V25.1924V25.1932V25.1941V25.1949V25.1958V25.1966V25.1974V25.1983V25.1991V25.1999V25.2007V25.2015V25.2024V25.2032V25.204V25.2048V25.2056V25.2064V25.2071V25.2079V25.2087V25.2095V25.2103V25.211V25.2118V25.2126V25.2133V25.2141V25.2149V25.2156V25.2164V25.2171V25.2178V25.2186V25.2193V25.22V25.2208V25.2215V25.2222V25.2229V25.2236V25.2243V25.2251V25.2258V25.2265V25.2272V25.2278V25.2285V25.2292V25.2299V25.2306V25.2313V25.2319V25.2326V25.2333V25.2339V25.2346V25.2352V25.2359V25.2366V25.2372V25.2378V25.2385V25.2391V25.2398V25.2404V25.241V25.2416V25.2423V25.2429V25.2435V25.2441V25.2447V25.2453V25.2459V25.2465V25.2471V25.2477V25.2483V25.2489V25.2495V25.25V25.2506V25.2512V25.2518V25.2523V25.2529V25.2535V25.254V25.2546V25.2551V25.2557V25.2562V25.2568V25.2573V25.2578V25.2584V25.2589V25.2594V25.26V25.2605V25.261V25.2615V25.262V25.2626V25.2631V25.2636V25.2641V25.2646V25.2651V25.2656V25.2661V25.2665V25.267V25.2675V25.268V25.2685V25.2689V25.2694V25.2699V25.2704V25.2708V25.2713V25.2717V25.2722V25.2726V25.2731V25.2735V25.274V25.2744V25.2749V25.2753V25.2757V25.2762V25.2766V25.277V25.2775V25.2779V25.2783V25.2787V25.2791V25.2795V25.2799V25.2803V25.2807V25.2811V25.2815V25.2819V25.2823V25.2827V25.2831V25.2835V25.2839V25.2843V25.2846V25.285V25.2854V25.2858V25.2861V25.2865V25.2869V25.2872V25.2876V25.2879V25.2883V25.2886V25.289V25.2893V25.2897V25.29V25.2903V25.2907V25.291V25.2913V25.2917V25.292V25.2923V25.2927V25.293V25.2933V25.2936V25.2939V25.2942V25.2945V25.2948V25.2952V25.2955V25.2958V25.2961V25.2964V25.2966V25.2969V25.2972V25.2975V25.2978V25.2981V25.2984V25.2986V25.2989V25.2992V25.2995V25.2997V25.3V25.3003V25.3005V25.3008V25.3011V25.3013V25.3016V25.3018V25.3021V25.3023V25.3026V25.3028V25.3031V25.3033V25.3035V25.3038V25.304V25.3042V25.3045V25.3047V25.3049V25.3052V25.3054V25.3056V25.3058V25.306V25.3063V25.3065V25.3067V25.3069V25.3071V25.3073V25.3075V25.3077V25.3079V25.3081V25.3083V25.3085V25.3087V25.3089V25.3091V25.3093V25.3095V25.3097V25.3098V25.31V25.3102V25.3104V25.3106V25.3107V25.3109V25.3111V25.3112V25.3114V25.3116V25.3117V25.3119V25.3121V25.3122V25.3124V25.3126V25.3127V25.3129V25.313V25.3132V25.3133V25.3135V25.3136V25.3138V25.3139V25.314V25.3142V25.3143V25.3145V25.3146V25.3147V25.3149V25.315V25.3151V25.3152V25.3154V25.3155V25.3156V25.3157V25.3159V25.316V25.3161V25.3162V25.3163V25.3165V25.3166V25.3167V25.3168V25.3169V25.317V25.3171V25.3172V25.3173V25.3174V25.3175V25.3176V25.3177V25.3178V25.3179V25.318V25.3181V25.3182V25.3183V25.3184V25.3185V25.3185V25.3186V25.3187V25.3188V25.3189V25.319V25.319V25.3191V25.3192V25.3193V25.3194V25.3194V25.3195V25.3196V25.3196V25.3197V25.3198V25.3199V25.3199V25.32V25.3201V25.3201V25.3202V25.3202V25.3203V25.3204V25.3204V25.3205V25.3205V25.3206V25.3207V25.3207V25.3208V25.3208V25.3209V25.3209V25.321V25.321V25.3211V25.3211V25.3212V25.3212V25.3212V25.3213V25.3213V25.3214V25.3214V25.3215V25.3215V25.3215V25.3216V25.3216V25.3216V25.3217V25.3217V25.3217V25.3218V25.3218V25.3218V25.3219V25.3219V25.3219V25.322V25.322V25.322V25.3221V25.3221V25.3221V25.3221V25.3222V25.3222V25.3222V25.3222V25.3222V25.3223V25.3223V25.3223V25.3223V25.3223V25.3224V25.3224V25.3224V25.3224V25.3224V25.3224V25.3225V25.3225V25.3225V25.3225V25.3225V25.3226V25.3226V25.3226V25.3226V25.3226V25.3227V25.3227V25.3227V25.3227V25.3227V25.3227V25.3228V27.1446C72.185 27.652 71.9414 28.0757 71.6644 28.3526C71.3874 28.6296 70.9637 28.8733 70.4563 28.8733H67.7236C67.3605 28.8733 67.0258 28.6764 66.8495 28.3589L66.2243 27.2337H63.5335C63.0261 27.2337 62.6024 26.99 62.3254 26.713C62.2108 26.5984 62.1018 26.4586 62.0135 26.2981C61.7758 26.1153 61.6226 25.828 61.6226 25.5049V21.3148C61.6226 20.8074 61.8663 20.3837 62.1433 20.1068C62.4202 19.8298 62.8439 19.5861 63.3514 19.5861H69.7276C69.7278 19.5861 69.728 19.5861 69.7282 19.5861C66.7715 19.4016 62.418 19.4 59.1613 19.4C59.1283 19.4 59.0167 19.4237 58.8941 19.5565C58.7787 19.6815 58.7038 19.8536 58.7038 20.0396C58.7038 20.05 58.7037 20.0604 58.7033 20.0708L58.5212 25.9005C58.5043 26.4404 58.0618 26.8693 57.5216 26.8693H57.5066H57.4915H57.4762H57.4607H57.4452H57.4295H57.4136H57.3976H57.3815H57.3652H57.3488H57.3323H57.3156H57.2988H57.2819H57.2649H57.2477H57.2303H57.2129H57.1953H57.1776H57.1598H57.1418H57.1237H57.1055H57.0871H57.0687H57.0501H57.0314H57.0125H56.9936H56.9745H56.9553H56.936H56.9165H56.897H56.8773H56.8575H56.8376H56.8176H56.7974H56.7772H56.7568H56.7363H56.7158H56.695H56.6742H56.6533H56.6323H56.6111H56.5899H56.5685H56.5471H56.5255H56.5038H56.482H56.4601H56.4381H56.416H56.3938H56.3715H56.3491H56.3266H56.304H56.2813H56.2585H56.2356H56.2127H56.1896H56.1664H56.1431H56.1197H56.0963H56.0727H56.049H56.0253H56.0015H55.9775H55.9535H55.9294H55.9052H55.881H55.8566H55.8321H55.8076H55.783H55.7583H55.7335H55.7086H55.6836H55.6586H55.6335H55.6083H55.583H55.5576H55.5322H55.5067H55.4811H55.4554H55.4297H55.4038H55.378H55.352H55.3259H55.2998H55.2736H55.2474H55.2211H55.1947H55.1682H55.1417H55.1151H55.0884H55.0617H55.0349H55.008H54.9811H54.9541H54.927H54.8999H54.8727H54.8455H54.8182H54.7908H54.7634H54.7359H54.7084H54.6808H54.6532H54.6255H54.5977H54.5699H54.542H54.5141H54.4861H54.4581H54.43H54.4019H54.3737H54.3455H54.3172H54.2889H54.2605H54.2321H54.2037H54.1752H54.1466H54.118H54.0894H54.0607H54.032H54.0032H53.9744H53.9456H53.9167H53.8878H53.8589H53.8299H53.8008H53.7718H53.7427H53.7136H53.6844H53.6552H53.626H53.5967H53.5674H53.5381H53.5087H53.4794H53.4499H53.4205H53.391H53.3616H53.332H53.3025H53.2729H53.2433H53.2137H53.1841H53.1544H53.1248H53.0951H53.0654H53.0356H53.0059H52.9761H52.9463H52.9165H52.8867H52.8568H52.827H52.7971H52.7673H52.7374H52.7075H52.6776H52.6477H52.6177H52.5878H52.5578H52.5279H52.4979H52.468H52.438H52.408H52.378H52.348H52.3181H52.2881H52.2581H52.2281H52.1981H52.1681H52.1381H52.1081H52.0781H52.0481H52.0182H51.9882H51.9582H51.9283H51.8983H51.8683H51.8384H51.8085H51.7785H51.7486H51.7187H51.6888H51.6589H51.6291H51.5992H51.5694H51.5395H51.5097H51.4799H51.4502H51.4204H51.3906H51.3609H51.3312H51.3015H51.2719H51.2422H51.2126H51.183H51.1534H51.1239H51.0943H51.0648H51.0353H51.0059H50.9765H50.9471H50.9177H50.8884H50.859H50.8298H50.8005H50.7713H50.7421H50.713H50.6838H50.6548H50.6257H50.5967H50.5677H50.5388H50.5099H50.481H50.4522H50.4234H50.3947H50.366H50.3373H50.3087H50.2801H50.2516H50.2231H50.1947H50.1663H50.1379H50.1096H50.0814H50.0532H50.025H49.9969H49.9689H49.9409H49.9129H49.885H49.8572H49.8294H49.8017H49.774H49.7463H49.7188H49.6913H49.6638H49.6364H49.6091H49.5818H49.5546H49.5274H49.5003H49.4733H49.4464H49.4194H49.3926H49.3658H49.3391H49.3125H49.2859H49.2594H49.233H49.2066H49.1803H49.1541H49.1279H49.1018H49.0758H49.0499H49.024H48.9982H48.9725H48.9469H48.9213H48.8959H48.8704H48.8451H48.8199H48.7947H48.7696H48.7446H48.7197H48.6948H48.6701H48.6454H48.6208H48.5963H48.5719H48.5476H48.5233H48.4992H48.4751H48.4511H48.4272H48.4034H48.3797H48.3561H48.3326H48.3092H48.2858H48.2626H48.2394H48.2164H48.1934H48.1706H48.1478H48.1252H48.1026H48.0802H48.0578H48.0355H48.0134H47.9913H47.9694H47.9475H47.9258H47.9042H47.8826H47.8612H47.8399H47.8187H47.7976H47.7766H47.7557H47.735H47.7143H47.6937H47.6733H47.653H47.6328H47.6127H47.5927H47.5729H47.5531H47.5335H47.514H47.4946H47.4753H47.4562H47.4372H47.4182H47.3995H47.3808H47.3623H47.3438H47.3256H47.3074H47.2894H47.2714H47.2537H47.236H47.2185H47.2011H47.1838H47.1667H47.1497H47.1328H47.116H47.0994H47.083H47.0666H47.0504H47.0343H47.0184H47.0026H46.987H46.9714H46.9561H46.9408H46.9257H46.9108H46.896H46.8813H46.8668H46.8524H46.8381H46.824H46.8101H46.7963H46.7826H46.7691H46.7558H46.7426H46.7295H46.7166H46.7038H46.6912H46.6788H46.6665H46.6543H46.6424H46.6305H46.6188H46.6073H46.596H46.5848H46.5737H46.5628H46.5521H46.5415H46.5311H46.5209H46.5108H46.5009H46.4911H46.4816H46.4721H46.4629H46.4538H46.4449H46.4361H46.4275H46.4191H46.4109H46.4028H46.3949H46.3872H46.3796H46.3722H46.365H46.358H46.3511H46.3444H46.3379H46.3316H46.3254H46.3195H46.3137H46.3081H46.3026H46.2974H46.2923H46.2874H46.2827H46.2782H46.2739H46.2697H46.2657H46.262H46.2584H46.255H46.2518H46.2487H46.2459H46.2433H46.2408H46.2386H46.2365H46.2346H46.233H46.2315H46.2302H46.2291H46.2282H46.2275H46.227H46.2267L46.2266 25.8693V26.8693C45.6743 26.8693 45.2266 26.4216 45.2266 25.8693V24.3188H28.3731C27.8965 24.3188 27.486 23.9824 27.3926 23.5149L26.683 19.9673C26.4804 19.4129 26.6641 18.8742 26.8647 18.5532C27.0676 18.2287 27.4942 17.7987 28.1158 17.7663L91.3335 10.3396L89.5134 7.52666C89.4372 7.46677 89.3693 7.39542 89.3123 7.31406L88.2081 5.73663H13.2523C12.7001 5.73663 12.2523 5.28892 12.2523 4.73663V1H1.86423V17.9465H12.2523V8.3802C12.2523 7.82791 12.7001 7.3802 13.2523 7.3802H75.9217C76.4504 7.3802 76.8878 7.79182 76.9198 8.3196C76.9519 8.84737 76.5675 9.30888 76.0426 9.37285L18.083 16.4367L18.2424 18.8271L19.7113 18.6802C19.7443 18.6769 19.7775 18.6752 19.8108 18.6752C20.8665 18.6752 21.5395 19.6375 21.5395 20.5861C21.5395 20.6083 21.5387 20.6305 21.5373 20.6527L21.3551 23.3853C21.3201 23.9106 20.8838 24.3188 20.3573 24.3188H3.50383V33.3386V34.6139ZM11.0662 1.36832C11.6185 1.36832 12.0662 1.81603 12.0662 2.36832V16.7604C12.0662 17.3127 11.6185 17.7604 11.0662 17.7604H3.23254C2.68026 17.7604 2.23254 17.3127 2.23254 16.7604V2.36832C2.23254 1.81603 2.68026 1.36832 3.23254 1.36832H11.0662Z" stroke="#222D48" stroke-width="2" stroke-linejoin="round"/>
<line x1="30.5" y1="33" x2="62.5" y2="33" stroke="#222D48" stroke-width="2"/>
</svg>
