<svg width="93" height="54" viewBox="0 0 93 54" fill="none" xmlns="http://www.w3.org/2000/svg">
<path d="M88.2271 41.4503C88.2271 38.4197 85.7387 35.9006 82.8634 35.9006C80.0383 35.9006 77.6709 38.3701 77.4998 41.4758C77.5137 44.495 79.9962 47.0001 82.8634 47.0001C85.7387 47.0001 88.2271 44.481 88.2271 41.4503ZM87.4998 41.4503C87.4998 44.0337 85.4427 46.193 82.8634 46.193C80.2842 46.193 78.2271 44.0337 78.2271 41.4503C78.2271 38.8669 80.2842 36.7077 82.8634 36.7077C85.4427 36.7077 87.4998 38.8669 87.4998 41.4503Z" stroke="#222D48" stroke-width="2"/>
<path d="M18.4092 41.4503C18.4092 38.4197 15.9208 35.9006 13.0455 35.9006C10.1703 35.9006 7.68192 38.4197 7.68192 41.4503C7.68192 44.481 10.1703 47.0001 13.0455 47.0001C15.9208 47.0001 18.4092 44.481 18.4092 41.4503ZM17.6819 41.4503C17.6819 44.0337 15.6248 46.193 13.0455 46.193C10.4663 46.193 8.40919 44.0337 8.40919 41.4503C8.40919 38.8669 10.4663 36.7077 13.0455 36.7077C15.6248 36.7077 17.6819 38.8669 17.6819 41.4503Z" stroke="#222D48" stroke-width="2"/>
<path d="M35.3184 41.4503C35.3184 38.4197 32.83 35.9006 29.9547 35.9006C27.0794 35.9006 24.5911 38.4197 24.5911 41.4503C24.5911 44.481 27.0794 47.0001 29.9547 47.0001C32.83 47.0001 35.3184 44.481 35.3184 41.4503ZM34.5911 41.4503C34.5911 44.0337 32.534 46.193 29.9547 46.193C27.3755 46.193 25.3184 44.0337 25.3184 41.4503C25.3184 38.8669 27.3755 36.7077 29.9547 36.7077C32.534 36.7077 34.5911 38.8669 34.5911 41.4503Z" stroke="#222D48" stroke-width="2"/>
<path d="M37.9362 37.7719C38.1565 38.3451 38.3172 38.932 38.4352 39.5146H59.7727H60.7727V39.8889H63.4091H64.4091V40.8889V42.3216H74.0455V42.3212V42.3189V42.3165V42.3142V42.3118V42.3094V42.307V42.3046V42.3022V42.2998V42.2974V42.2949V42.2925V42.2901V42.2876V42.2852V42.2827V42.2802V42.2778V42.2753V42.2728V42.2703V42.2678V42.2653V42.2628V42.2603V42.2577V42.2552V42.2527V42.2501V42.2476V42.245V42.2424V42.2399V42.2373V42.2347V42.2321V42.2295V42.2269V42.2243V42.2217V42.2191V42.2165V42.2139V42.2112V42.2086V42.2059V42.2033V42.2006V42.198V42.1953V42.1927V42.19V42.1873V42.1846V42.1819V42.1792V42.1765V42.1738V42.1711V42.1684V42.1657V42.163V42.1603V42.1575V42.1548V42.152V42.1493V42.1466V42.1438V42.141V42.1383V42.1355V42.1328V42.13V42.1272V42.1244V42.1216V42.1189V42.1161V42.1133V42.1105V42.1077V42.1049V42.1021V42.0992V42.0964V42.0936V42.0908V42.088V42.0851V42.0823V42.0795V42.0766V42.0738V42.071V42.0681V42.0653V42.0624V42.0596V42.0567V42.0538V42.051V42.0481V42.0452V42.0424V42.0395V42.0366V42.0338V42.0309V42.028V42.0251V42.0222V42.0193V42.0165V42.0136V42.0107V42.0078V42.0049V42.002V41.9991V41.9962V41.9933V41.9904V41.9875V41.9846V41.9817V41.9788V41.9759V41.9729V41.97V41.9671V41.9642V41.9613V41.9584V41.9555V41.9525V41.9496V41.9467V41.9438V41.9409V41.9379V41.935V41.9321V41.9292V41.9262V41.9233V41.9204V41.9175V41.9146V41.9116V41.9087V41.9058V41.9029V41.8999V41.897V41.8941V41.8912V41.8882V41.8853V41.8824V41.8795V41.8766V41.8736V41.8707V41.8678V41.8649V41.862V41.859V41.8561V41.8532V41.8503V41.8474V41.8445V41.8416V41.8386V41.8357V41.8328V41.8299V41.827V41.8241V41.8212V41.8183V41.8154V41.8125V41.8096V41.8067V41.8038V41.8009V41.798V41.7952V41.7923V41.7894V41.7865V41.7836V41.7807V41.7779V41.775V41.7721V41.7693V41.7664V41.7635V41.7607V41.7578V41.755V41.7521V41.7493V41.7464V41.7436V41.7407V41.7379V41.735V41.7322V41.7294V41.7266V41.7237V41.7209V41.7181V41.7153V41.7125V41.7097V41.7069V41.7041V41.7013V41.6985V41.6957V41.6929V41.6901V41.6873V41.6846V41.6818V41.679V41.6763V41.6735V41.6707V41.668V41.6652V41.6625V41.6598V41.657V41.6543V41.6516V41.6489V41.6461V41.6434V41.6407V41.638V41.6353V41.6326V41.63V41.6273V41.6246V41.6219V41.6193V41.6166V41.6139V41.6113V41.6086V41.606V41.6034V41.6007V41.5981V41.5955V41.5929V41.5903V41.5877V41.5851V41.5825V41.5799V41.5773V41.5747V41.5722V41.5696V41.567V41.5645V41.562V41.5594V41.5569V41.5544V41.5518V41.5493V41.5468V41.5443V41.5418V41.5394V41.5369V41.5344V41.5319V41.5295V41.527V41.5246V41.5221V41.5197V41.5173V41.5149V41.5125V41.5101V41.5077V41.5053V41.5029V41.5005V41.4982V41.4958V41.4934V41.4911V41.4888V41.4864V41.4841V41.4818V41.4795V41.4772V41.4749V41.4726V41.4704V41.4681V41.4659V41.4636V41.4614V41.4591V41.4569V41.4547V41.4525V41.4503C74.0455 36.2197 78.3304 31.9839 83.6698 32.4066L83.6842 32.4078L83.6986 32.4093C84.4307 32.4886 85.1314 32.6628 85.7922 32.9177C85.7206 32.8078 85.6603 32.6934 85.6134 32.5728C85.4993 32.2792 85.4998 32.0289 85.5 31.9192C85.5 31.9147 85.5 31.9104 85.5 31.9064V30.0351C85.5 29.074 86.3791 28.6639 87.038 28.6608C84.3122 27.437 81.563 26.2597 77.3893 25.4005L76.714 25.2615L76.6038 24.5809C76.2544 22.4232 75.7313 20.4359 75.0265 18.2516C74.8973 18.0038 74.7146 17.7635 74.5203 17.592C74.2984 17.3963 74.1617 17.3743 74.1364 17.3743H74.0681L74.0004 17.365C71.3593 17.0025 65.6317 17 61.5909 17C61.4113 17 61.276 17.073 61.199 17.1589C61.1305 17.2353 61.0882 17.3403 61.118 17.4935L61.1374 17.5935L61.1363 17.6954L60.9545 33.9704V36.7719V37.7719H59.9545H37.9362ZM89.6826 34.9241L90.3182 34.152L89.6825 34.924L89.3182 34.624V34.1854C89.1637 34.2818 89.0165 34.3266 88.931 34.3486C88.8136 34.3788 88.709 34.3912 88.6423 34.3969C88.6067 34.4 88.576 34.4016 88.5524 34.4025C88.5404 34.4029 88.53 34.4032 88.5212 34.4033L88.5093 34.4035L88.5044 34.4035L88.5021 34.4035L88.501 34.4035H88.5005C88.5003 34.4035 88.5 34.4035 88.5 33.4035L88.5 34.4035H88.5H88.4999H88.4999H88.4999H88.4998H88.4997H88.4997H88.4996H88.4995H88.4994H88.4993H88.4992H88.4991H88.499H88.4988H88.4987H88.4985H88.4984H88.4982H88.498H88.4978H88.4977H88.4975H88.4973H88.497H88.4968H88.4966H88.4964H88.4961H88.4959H88.4956H88.4953H88.4951H88.4948H88.4945H88.4942H88.4939H88.4936H88.4933H88.493H88.4926H88.4923H88.4919H88.4916H88.4912H88.4909H88.4905H88.4901H88.4897H88.4893H88.4889H88.4885H88.4881H88.4877H88.4872H88.4868H88.4863H88.4859H88.4854H88.485H88.4845H88.484H88.4835H88.483H88.4825H88.482H88.4815H88.481H88.4805H88.4799H88.4794H88.4789H88.4783H88.4777H88.4772H88.4766H88.476H88.4754H88.4749H88.4743H88.4737H88.473H88.4724H88.4718H88.4712H88.4705H88.4699H88.4693H88.4686H88.4679H88.4673H88.4666H88.4659H88.4652H88.4646H88.4639H88.4632H88.4624H88.4617H88.461H88.4603H88.4596H88.4588H88.4581H88.4573H88.4566H88.4558H88.4551H88.4543H88.4535H88.4527H88.4519H88.4511H88.4503H88.4495H88.4487H88.4479H88.4471H88.4463H88.4454H88.4446H88.4438H88.4429H88.4421H88.4412H88.4403H88.4395H88.4386H88.4377H88.4368H88.4359H88.4351H88.4342H88.4333H88.4323H88.4314H88.4305H88.4296H88.4287H88.4277H88.4268H88.4258H88.4249H88.4239H88.423H88.422H88.4211H88.4201H88.4191H88.4181H88.4171H88.4161H88.4152H88.4142H88.4132H88.4121H88.4111H88.4101H88.4091H88.4081H88.407H88.406H88.405H88.4039H88.4029H88.4018H88.4008H88.3997H88.3986H88.3976H88.3965H88.3954H88.3943H88.3932H88.3922H88.3911H88.39H88.3889H88.3878H88.3867H88.3855H88.3844H88.3833H88.3822H88.3811H88.3799H88.3788H88.3776H88.3765H88.3754H88.3742H88.3731H88.3719H88.3707H88.3696H88.3684H88.3672H88.3661H88.3649H88.3637H88.3625H88.3613H88.3601H88.3589H88.3577H88.3565H88.3553H88.3541H88.3529H88.3517H88.3505H88.3492H88.348H88.3468H88.3456H88.3443H88.3431H88.3419H88.3406H88.3394H88.3381H88.3369H88.3356H88.3344H88.3331H88.3318H88.3306H88.3293H88.328H88.3268H88.3255H88.3242H88.3229H88.3216H88.3204H88.3191H88.3178H88.3165H88.3152H88.3139H88.3126H88.3113H88.31H88.3087H88.3074H88.306H88.3047H88.3034H88.3021H88.3008H88.2994H88.2981H88.2968H88.2955H88.2941H88.2928H88.2915H88.2901H88.2888H88.2874H88.2861H88.2855C89.6838 35.585 90.7294 37.1857 91.2716 38.9532H91.5V37.5205C91.5 37.2141 91.4615 36.8365 91.3755 36.5179C91.3328 36.3599 91.2852 36.2416 91.2413 36.1622C91.2176 36.1192 91.2008 36.0982 91.1945 36.0908C90.8931 35.8832 90.5128 35.5888 90.2202 35.3571C90.0687 35.2372 89.9349 35.1294 89.8389 35.0516C89.7909 35.0126 89.7521 34.981 89.7253 34.9591L89.6941 34.9335L89.6858 34.9267L89.6835 34.9248L89.6829 34.9243L89.6827 34.9241L89.6826 34.9241ZM87.075 33.541C87.075 33.541 87.075 33.541 87.0751 33.541C87.1612 33.4573 87.2667 33.3547 87.3959 33.2292L87.075 33.541ZM70.7727 27.8538H70.652L70.5347 27.8251L66.8148 26.9135C66.1745 26.8709 65.6198 26.5408 65.2373 26.1471C64.8255 25.7233 64.5 25.1105 64.5 24.4211V22.6784C64.5 21.9889 64.8255 21.3761 65.2373 20.9523C65.6473 20.5303 66.2554 20.1813 66.9545 20.1813H70.2273C71.5535 20.1813 72.3991 21.2075 72.6536 22.2552L72.658 22.2734L72.6617 22.2917L73.2072 24.97L73.2072 24.97L73.2089 24.9788C73.527 26.616 72.2219 27.8538 70.7727 27.8538Z" stroke="#222D48" stroke-width="2"/>
<path d="M4.20372 39.5147C4.34578 38.8811 4.5493 38.3083 4.79609 37.772H1.5V38.6433V39.5147H4.20372Z" stroke="#222D48" stroke-width="2"/>
<path d="M20.9065 37.772C21.1038 38.2134 21.2732 38.6705 21.4072 39.1367C21.5374 38.6669 21.6972 38.2092 21.8706 37.772H20.9065Z" stroke="#222D48" stroke-width="2"/>
</svg>
