<svg width="18" height="17" viewBox="0 0 18 17" fill="none" xmlns="http://www.w3.org/2000/svg">
<path fill-rule="evenodd" clip-rule="evenodd" d="M12.6975 2.35403H15.2335C16.1135 2.35403 16.8335 3.07403 16.8335 3.95403V13.554C16.8335 14.434 16.1135 15.154 15.2335 15.154H2.4335C1.5535 15.154 0.833496 14.434 0.833496 13.554V3.95403C0.833496 3.07403 1.5535 2.35403 2.4335 2.35403H4.9695L6.4335 0.754028H11.2335L12.6975 2.35403ZM15.2335 13.554V3.95401H11.9935L10.5295 2.35401H7.13749L5.67349 3.95401H2.43349V13.554H15.2335ZM8.83349 4.75401C6.62549 4.75401 4.83349 6.54601 4.83349 8.75401C4.83349 10.962 6.62549 12.754 8.83349 12.754C11.0415 12.754 12.8335 10.962 12.8335 8.75401C12.8335 6.54601 11.0415 4.75401 8.83349 4.75401ZM6.4335 8.75405C6.4335 10.074 7.5135 11.154 8.8335 11.154C10.1535 11.154 11.2335 10.074 11.2335 8.75405C11.2335 7.43405 10.1535 6.35405 8.8335 6.35405C7.5135 6.35405 6.4335 7.43405 6.4335 8.75405Z" fill="#222D48"/>
</svg>
