<svg width="94" height="54" viewBox="0 0 94 54" fill="none" xmlns="http://www.w3.org/2000/svg">
<path d="M15.7112 43.5156L15.707 43.4702V43.4246C15.707 40.8584 17.812 38.7717 20.3789 38.7717C22.9458 38.7717 25.0508 40.8584 25.0508 43.4246C25.0508 45.9909 22.9458 48.0776 20.3789 48.0776C17.7368 48.0776 15.9316 45.9273 15.7112 43.5156ZM25.8047 43.6073C25.8047 40.6941 23.3198 38.2146 20.3789 38.2146C17.4721 38.2146 15.1234 40.4826 14.9532 43.6322C14.9673 46.5346 17.4464 49 20.3789 49C23.3198 49 25.8047 46.5205 25.8047 43.6073Z" stroke="#222D48" stroke-width="2"/>
<path d="M76.4766 43.6073C76.4766 40.6941 73.9916 38.2146 71.0508 38.2146C68.0911 38.2146 65.625 40.53 65.625 43.6073C65.625 46.5205 68.1099 49 71.0508 49C73.9916 49 76.4766 46.5205 76.4766 43.6073ZM75.7227 43.4246C75.7227 45.9909 73.6177 48.0776 71.0508 48.0776C68.4838 48.0776 66.3789 45.9909 66.3789 43.4246C66.3789 40.8584 68.4838 38.7717 71.0508 38.7717C73.6177 38.7717 75.7227 40.8584 75.7227 43.4246Z" stroke="#222D48" stroke-width="2"/>
<mask id="path-3-inside-1" fill="white">
<path d="M77.4766 16.0273H82.6172L81.332 14.5662H78.7617L77.4766 16.0273Z"/>
</mask>
<path d="M77.4766 16.0273V18.0273H73.054L75.9748 14.7065L77.4766 16.0273ZM82.6172 16.0273L84.119 14.7065L87.0398 18.0273H82.6172V16.0273ZM81.332 14.5662V12.5662H82.2365L82.8338 13.2453L81.332 14.5662ZM78.7617 14.5662L77.2599 13.2453L77.8573 12.5662H78.7617V14.5662ZM77.4766 14.0273H82.6172V18.0273H77.4766V14.0273ZM81.1154 17.3482L79.8303 15.887L82.8338 13.2453L84.119 14.7065L81.1154 17.3482ZM81.332 16.5662H78.7617V12.5662H81.332V16.5662ZM80.2635 15.887L78.9783 17.3482L75.9748 14.7065L77.2599 13.2453L80.2635 15.887Z" fill="#222D48" mask="url(#path-3-inside-1)"/>
<path d="M6.13416 26.1865L6.03291 27.0731H5.14062H1V40.4155H3.12109H4.21664L4.11694 41.5065L4.03304 42.4247H10.8015C11.3026 37.5913 15.3968 33.8402 20.3789 33.8402C25.361 33.8402 29.4552 37.5913 29.9563 42.4247H30.8438H52.0586V41.5982V40.5982H53.0586H54.5273H55.5273V41.5982V42.4247H61.2898C61.7909 37.5913 65.8851 33.8402 70.8672 33.8402C75.8493 33.8402 79.9435 37.5913 80.4446 42.4247H89.852C89.8716 42.4065 89.8943 42.3821 89.9176 42.3519C89.9457 42.3154 89.9688 42.278 89.9854 42.245L90.2623 41.6941H90.8789H93V40.0411H90.8789H89.8789V39.0411V27.8995V27.8564L87.1953 18.4232C87.1857 18.4084 87.1751 18.3935 87.1637 18.3787C87.1404 18.3485 87.1177 18.3241 87.0981 18.3059H55.5273V30.8219V31.8219H54.5273H53.0586H52.0586V30.8219V24.3333H47.3672H46.3672V23.3333V19.863V19.0365H45.1641H44.685L44.3848 18.6632C43.9416 18.1121 43.6631 17.5595 43.494 17.1107C43.3375 16.6957 43.2461 16.292 43.2461 16.0274C43.2461 15.6791 43.3707 15.3685 43.5005 15.1318C43.6372 14.8824 43.8233 14.6362 44.0405 14.3978C44.1583 14.2685 44.29 14.1364 44.4354 14.0021C44.0281 14.2572 43.6786 14.5125 43.3882 14.7634C42.8273 15.2482 42.5455 15.6662 42.4404 15.9798C42.4405 15.9795 42.4404 15.9797 42.4402 15.9807C42.4382 15.9893 42.4233 16.0547 42.4233 16.1901C42.4233 16.3284 42.4389 16.4992 42.4743 16.6841C42.5484 17.0711 42.688 17.4136 42.8415 17.6172L44.0492 19.2192H42.043H41.9414V20.0457V23.3333V24.3333H40.9414H33.5977H32.5977V23.3333V19.0365H6.95087L6.13416 26.1865ZM81.352 28.8995C80.7829 28.8995 80.3547 28.5957 80.1082 28.2279C79.8816 27.8898 79.8012 27.5009 79.8012 27.1689V22.9879C79.8012 22.6559 79.8816 22.267 80.1082 21.9289C80.3547 21.5611 80.7829 21.2573 81.352 21.2573H83.148C83.5016 21.2573 83.8532 21.4035 84.115 21.6118C84.3849 21.8267 84.6527 22.1858 84.6935 22.6759L85.5754 26.8684C85.785 27.4252 85.6062 27.9652 85.3145 28.3134C85.0203 28.6646 84.5614 28.8995 84.066 28.8995H81.352ZM71.7852 28.7169C70.2394 28.7169 69.3164 27.46 69.3164 26.2557V23.7185C69.3164 22.1682 70.5872 21.2573 71.7852 21.2573H73.4375C74.9832 21.2573 75.9062 22.5142 75.9062 23.7185V26.2557C75.9062 27.806 74.6354 28.7169 73.4375 28.7169H71.7852ZM60.7895 28.8995C60.2204 28.8995 59.7922 28.5957 59.5457 28.2279C59.3191 27.8898 59.2387 27.5009 59.2387 27.1689V22.9879C59.2387 22.6559 59.3191 22.267 59.5457 21.9289C59.7922 21.5611 60.2203 21.2573 60.7895 21.2573H63.3199C63.889 21.2573 64.3172 21.5611 64.5637 21.9289C64.7903 22.267 64.8707 22.6559 64.8707 22.9879V27.1689C64.8707 27.5009 64.7903 27.8898 64.5637 28.2279C64.3172 28.5957 63.889 28.8995 63.3199 28.8995H60.7895ZM51.4883 35.9361C51.4883 37.3405 50.3654 38.7626 48.6523 38.7626C47.2532 38.7626 45.8164 37.6528 45.8164 35.9361C45.8164 35.1524 46.2001 34.4537 46.6849 33.9714C47.17 33.4888 47.8699 33.1096 48.6523 33.1096C50.0515 33.1096 51.4883 34.2194 51.4883 35.9361ZM45.2461 35.9361C45.2461 37.3405 44.1232 38.7626 42.4102 38.7626C41.6337 38.7626 40.9082 38.5008 40.3738 37.9692C39.839 37.4371 39.5742 36.7128 39.5742 35.9361C39.5742 34.5316 40.6971 33.1096 42.4102 33.1096C43.8093 33.1096 45.2461 34.2194 45.2461 35.9361ZM38.8203 35.9361C38.8203 37.3405 37.6974 38.7626 35.9844 38.7626C34.5853 38.7626 33.1484 37.6528 33.1484 35.9361C33.1484 34.5316 34.2714 33.1096 35.9844 33.1096C37.3835 33.1096 38.8203 34.2194 38.8203 35.9361Z" stroke="#222D48" stroke-width="2"/>
</svg>
