<svg width="140" height="31" viewBox="0 0 140 31" fill="none" xmlns="http://www.w3.org/2000/svg">
<rect width="140" height="30.8824" fill="white"/>
<path d="M82.8535 2.05908H2.05859V28.8238H82.8535V2.05908Z" fill="#1C49AD"/>
<path d="M137.941 2.05884H82.8535V28.8235H137.941V2.05884Z" fill="#F5BF41"/>
<path d="M91.9455 18.1456C91.8406 18.1456 91.7649 18.1255 91.6863 18.1255C90.6322 18.1255 89.5752 18.1255 88.5211 18.1255C88.2706 18.1255 88.1891 18.2316 88.1396 18.4525C88.0214 19.0762 87.9755 19.7112 88.0027 20.3452C87.9863 20.7066 88.0568 21.0667 88.2087 21.3962C88.3605 21.7256 88.5893 22.015 88.8763 22.2408C89.7149 22.8717 90.7312 22.9205 91.7067 22.9549C93.4742 23.0208 95.2534 23.0524 96.9889 22.6107C98.3196 22.2723 99.5252 21.7332 100.064 20.3481C100.603 18.9629 101.071 17.5864 100.856 16.0693C100.819 15.7353 100.684 15.419 100.468 15.1596C100.251 14.9003 99.9617 14.709 99.6358 14.6096C98.1536 14.1078 96.5987 14.1278 95.067 13.9816C94.588 13.9792 94.1113 13.9156 93.6489 13.7923C93.5159 13.7477 93.4037 13.6573 93.3331 13.5376C93.2624 13.418 93.2381 13.2772 93.2646 13.1413C93.3199 12.6251 93.3519 12.0659 93.8994 11.7992C94.8603 11.3346 95.9027 11.5124 96.9132 11.5468C97.6353 11.5669 97.8508 11.8938 97.7605 12.5964C97.7393 12.712 97.7102 12.826 97.6732 12.9377H101.459C101.534 12.5563 101.628 12.1806 101.68 11.7906C101.796 10.9905 101.837 10.1588 101.348 9.47628C100.859 8.79375 100.049 8.52131 99.2165 8.43527C97.1691 8.18798 95.0963 8.2295 93.0607 8.55859C92.4674 8.6521 91.9034 8.87696 91.4111 9.21623C90.9188 9.55551 90.5111 10.0004 90.2187 10.5173C89.6607 11.5335 89.3273 12.6545 89.2403 13.8066C89.0306 15.8571 89.8955 16.5741 91.4475 16.7977C92.9996 17.0214 94.5982 17.0845 96.1735 17.2164C96.6598 17.2623 96.9569 17.5032 96.8637 18.0366C96.8346 18.2116 96.7967 18.3865 96.7559 18.5586C96.6074 19.1522 96.2813 19.5709 95.6232 19.677C94.6998 19.8203 93.7603 19.8319 92.8336 19.7114C92.0183 19.611 91.8086 19.2669 91.9396 18.4668C91.9478 18.3599 91.9497 18.2527 91.9455 18.1456Z" fill="#1C49AD"/>
<path d="M124.745 16.8491C126.553 16.8491 128.289 16.8491 130.027 16.8491C130.61 16.8491 131.096 16.9266 131.14 16.1093C131.218 15.466 131.346 14.8295 131.521 14.205H125.295C125.488 13.3447 125.662 12.5159 125.849 11.6986C125.881 11.5695 126.009 11.5638 126.14 11.5638C127.963 11.5638 129.788 11.538 131.611 11.5638C132.249 11.5782 132.642 11.5265 132.715 10.7637C132.832 9.97921 132.993 9.20178 133.198 8.43506H122.64C121.609 13.2147 120.575 18.0077 119.539 22.8141H130.237C130.449 21.7617 130.665 20.7207 130.892 19.6166H124.102C124.326 18.6444 124.535 17.7382 124.745 16.8262" fill="#1C49AD"/>
<path d="M112.876 11.7707C112.067 15.4989 111.272 19.1495 110.471 22.8375H114.39C115.182 19.1438 115.971 15.4702 116.766 11.7765H120.671C120.925 10.6666 121.169 9.58548 121.423 8.46704H109.848C109.615 9.5568 109.382 10.638 109.137 11.7707H112.876Z" fill="#1C49AD"/>
<path d="M105.544 22.8488L108.633 8.46973H104.72C103.685 13.2494 102.651 18.0424 101.619 22.8488H105.544Z" fill="#1C49AD"/>
<path d="M75.1988 22.8287L71.2445 15.5015L77.8836 8.45245H73.0964C71.7424 9.9351 70.3651 11.4149 69.0198 12.9262C68.516 13.4998 68.0676 14.0733 67.1241 13.7349C67.491 12.0009 67.8657 10.2372 68.2481 8.44385H64.2996C63.2746 13.2235 62.2486 18.0031 61.2217 22.7828C61.2769 22.806 61.3345 22.8233 61.3935 22.8344H64.978C65.029 22.8361 65.0787 22.8187 65.117 22.7857C65.1554 22.7527 65.1796 22.7065 65.1848 22.6566C65.4585 21.4005 65.7303 20.1435 66.0001 18.8855C66.1224 18.3262 66.2476 17.767 66.3728 17.1935C66.7339 17.1935 67.0513 17.1935 67.3716 17.1935C67.4096 17.2004 67.4455 17.2156 67.4767 17.2379C67.5079 17.2602 67.5337 17.2891 67.5522 17.3225C68.1345 18.4696 68.7169 19.6167 69.2993 20.7409L70.3534 22.8143L75.1988 22.8287Z" fill="white"/>
<path d="M57.285 13.606C57.3345 13.6289 57.3578 13.649 57.3811 13.649C58.6507 13.649 59.9203 13.649 61.187 13.649C61.3355 13.649 61.4112 13.5458 61.4316 13.388C61.4811 13.0037 61.5451 12.6252 61.6121 12.2409C61.7723 11.349 61.8014 10.4428 61.3529 9.63696C60.7356 8.5386 59.5679 8.37513 58.4672 8.32925C56.9762 8.23606 55.4801 8.25331 53.9916 8.38087C52.9047 8.45391 51.8549 8.8005 50.9429 9.38746C49.3472 10.4916 48.7619 12.1692 48.3688 13.9386C48.1678 14.8506 48.0339 15.7769 47.7864 16.6802C47.4635 17.8588 47.3328 19.0804 47.3991 20.2994C47.4397 20.9285 47.7231 21.5184 48.1911 21.9484C48.8492 22.5678 49.6995 22.7657 50.576 22.8431C52.1552 22.9865 53.7437 23.0009 55.3253 22.8861C56.5848 22.8414 57.7868 22.3553 58.7148 21.5153C59.4458 20.8088 59.9613 19.9146 60.2027 18.9343C60.3454 18.4267 60.427 17.9048 60.5434 17.357H56.4668C56.4114 17.5779 56.3619 17.7815 56.3095 17.9822C56.1697 18.5099 55.9776 19.0032 55.4563 19.2871C54.7254 19.6828 53.9276 19.5738 53.1501 19.5738C52.69 19.5738 52.2008 19.5251 51.8805 19.1523C51.2981 18.4984 51.6592 17.7499 51.7786 17.0588C51.9737 15.9404 52.2561 14.8391 52.5153 13.735C52.6696 13.0726 52.8647 12.3929 53.5316 12.0574C54.5333 11.5555 55.6223 11.676 56.6793 11.848C57.1918 11.9283 57.419 12.347 57.3578 12.8718C57.3316 13.1271 57.2879 13.3794 57.253 13.6261" fill="white"/>
<path d="M43.8202 8.45251C43.7677 8.68767 43.7124 8.90276 43.6658 9.11784C43.3455 10.611 43.0272 12.1051 42.7107 13.6002C42.4195 14.9853 42.1283 16.3705 41.8109 17.747C41.6479 18.4353 41.5198 19.1809 40.6695 19.4333C39.8192 19.6856 39.0243 19.5939 38.1915 19.5508C37.1315 19.4935 36.7588 18.9543 37.0121 17.9478C37.3383 16.6544 37.5945 15.3409 37.8857 14.0361C38.1769 12.651 38.4681 11.2658 38.7593 9.88067C38.8612 9.41035 38.9573 8.94004 39.0505 8.44678H35.1776C35.1494 8.4991 35.126 8.55381 35.1077 8.61024C34.8631 9.71147 34.6156 10.8098 34.3798 11.9139C34.1439 13.018 33.9342 14.082 33.6984 15.1631C33.3292 16.6183 33.0376 18.0915 32.8248 19.5767C32.7229 20.4972 32.7549 21.4321 33.6168 22.063C34.339 22.5907 35.2009 22.7398 36.0628 22.823C37.7189 23.0023 39.3911 22.982 41.0422 22.7628C43.0165 22.476 44.4637 21.5038 45.2033 19.6483C45.7478 18.2775 45.9371 16.8092 46.2603 15.3811C46.6098 13.8382 46.933 12.2953 47.2649 10.7496C47.4251 9.99538 47.5794 9.23829 47.7425 8.45538L43.8202 8.45251Z" fill="white"/>
<path d="M19.5321 8.45874H7.93399C7.69231 9.5485 7.45353 10.6354 7.2002 11.7882H10.9362C10.1383 15.5164 9.35209 19.1498 8.56297 22.8264H12.5057C13.3035 19.1479 14.0995 15.4676 14.8934 11.7854H18.8216C19.0575 10.6813 19.2875 9.59438 19.5321 8.45874Z" fill="white"/>
<path d="M28.3231 17.2766L28.7016 17.1877C29.8052 16.9554 30.8273 16.5339 31.366 15.5015C32.1355 14.0124 32.4902 12.3489 32.3939 10.6807C32.3831 10.2888 32.256 9.90864 32.0283 9.58706C31.8006 9.26549 31.4823 9.01661 31.1127 8.87114C30.5074 8.60668 29.853 8.46898 29.1908 8.46679C26.4012 8.43524 23.6087 8.43811 20.8191 8.43237C20.7379 8.43882 20.6572 8.45031 20.5774 8.46679C19.5524 13.2589 18.5391 18.0337 17.5024 22.8287H21.4102C21.6859 21.5649 21.9635 20.3117 22.243 19.069C22.281 19.0514 22.3211 19.0389 22.3624 19.0317C23.4194 19.0317 24.4735 19.0116 25.5277 19.0317C25.6731 19.0349 25.8159 19.0703 25.9454 19.1353C26.075 19.2004 26.188 19.2934 26.276 19.4074C26.7594 20.024 26.4478 20.6635 26.3343 21.2944C26.2411 21.8049 26.1217 22.3096 26.011 22.8344H29.9188C30.1226 21.6557 30.542 20.523 30.5944 19.3242C30.638 18.3262 30.2741 17.8158 29.383 17.5061C29.0342 17.4114 28.6804 17.3358 28.3231 17.2795V17.2766ZM23.7485 12.1404C23.7718 12.0228 23.798 11.9053 23.8242 11.7877H26.8788C26.9836 11.7877 27.6068 11.7017 27.9329 12.0745C28.1163 12.2895 28.1542 12.5591 28.0872 13.0811C27.9974 13.6547 27.8581 14.2198 27.6708 14.7702C27.5917 15.025 27.427 15.2458 27.2037 15.3964C26.9805 15.547 26.7119 15.6184 26.442 15.599C25.3063 15.6277 24.1678 15.599 22.9972 15.599C23.2224 14.5838 23.4447 13.559 23.664 12.5247C23.6902 12.3957 23.7194 12.2637 23.7485 12.1347" fill="white"/>
</svg>
