<svg width="142" height="33" viewBox="0 0 142 33" fill="none" xmlns="http://www.w3.org/2000/svg">
<path d="M141.714 0.597168H0V32.5972H141.714V0.597168Z" fill="#E9E9E9"/>
<path d="M139.429 2.88293H83.8301V30.3115H139.429V2.88293Z" fill="#2356A5"/>
<path d="M93.0063 19.3685C92.9005 19.3685 92.8241 19.348 92.7447 19.348C91.6808 19.348 90.614 19.348 89.5501 19.348C89.2974 19.348 89.2151 19.4567 89.1651 19.683C89.0458 20.3223 88.9995 20.973 89.027 21.6227C89.0104 21.9931 89.0816 22.3621 89.2348 22.6998C89.388 23.0374 89.6189 23.334 89.9087 23.5653C90.7551 24.2119 91.7808 24.2618 92.7653 24.2971C94.5492 24.3647 96.3449 24.397 98.0965 23.9444C99.4396 23.5976 100.656 23.0451 101.2 21.6256C101.744 20.2061 102.217 18.7955 101.999 17.2408C101.963 16.8984 101.826 16.5744 101.608 16.3085C101.389 16.0427 101.097 15.8467 100.768 15.7449C99.2721 15.2305 97.7027 15.2511 96.1568 15.1012C95.6733 15.0988 95.1922 15.0336 94.7256 14.9073C94.5913 14.8616 94.4781 14.7689 94.4068 14.6463C94.3355 14.5237 94.3109 14.3794 94.3376 14.2401C94.3935 13.7111 94.4258 13.138 94.9783 12.8647C95.9481 12.3886 97.0003 12.5708 98.0201 12.6061C98.7489 12.6267 98.9664 12.9617 98.8753 13.6817C98.8539 13.8002 98.8245 13.917 98.7871 14.0315H102.608C102.684 13.6406 102.778 13.2556 102.831 12.8559C102.949 12.0359 102.99 11.1837 102.496 10.4842C102.002 9.78473 101.185 9.50553 100.345 9.41736C98.2783 9.16393 96.1863 9.20649 94.1319 9.54374C93.5331 9.63957 92.9638 9.87 92.467 10.2177C91.9701 10.5654 91.5587 11.0213 91.2635 11.551C90.7004 12.5925 90.3638 13.7413 90.276 14.922C90.0644 17.0233 90.9373 17.758 92.5037 17.9873C94.0702 18.2165 95.6836 18.2811 97.2736 18.4163C97.7644 18.4634 98.0642 18.7102 97.9701 19.2569C97.9407 19.4361 97.9025 19.6154 97.8614 19.7917C97.7115 20.4001 97.3823 20.8292 96.7181 20.9379C95.7862 21.0848 94.838 21.0966 93.9026 20.9732C93.0798 20.8703 92.8682 20.5177 93.0004 19.6977C93.0086 19.5882 93.0106 19.4783 93.0063 19.3685Z" fill="#E9E9E9"/>
<path d="M126.11 18.04C127.935 18.04 129.687 18.04 131.441 18.04C132.029 18.04 132.52 18.1194 132.564 17.2818C132.644 16.6226 132.772 15.9703 132.949 15.3303H126.666C126.86 14.4487 127.036 13.5993 127.224 12.7617C127.256 12.6295 127.386 12.6236 127.518 12.6236C129.358 12.6236 131.2 12.5971 133.04 12.6236C133.684 12.6383 134.081 12.5854 134.154 11.8036C134.272 10.9997 134.435 10.203 134.642 9.41724H123.985C122.945 14.3154 121.902 19.2273 120.855 24.153H131.653C131.868 23.0744 132.085 22.0076 132.314 20.8761H125.461C125.687 19.8798 125.899 18.9511 126.11 18.0165" fill="#E9E9E9"/>
<path d="M114.131 12.8352C113.314 16.6558 112.512 20.3971 111.704 24.1765H115.66C116.459 20.3912 117.256 16.6264 118.058 12.8411H121.999C122.255 11.7037 122.502 10.5958 122.757 9.44958H111.075C110.84 10.5664 110.605 11.6743 110.358 12.8352H114.131Z" fill="#E9E9E9"/>
<path d="M106.731 24.1883L109.849 9.45251H105.899C104.855 14.3507 103.812 19.2626 102.769 24.1883H106.731Z" fill="#E9E9E9"/>
<path d="M76.1041 24.1678L72.1131 16.6588L78.8138 9.43496H73.9822C72.6156 10.9544 71.2255 12.4709 69.8677 14.0197C69.3593 14.6075 68.9067 15.1952 67.9545 14.8485C68.3248 13.0714 68.7029 11.264 69.0889 9.42615H65.1037C64.0692 14.3243 63.0338 19.2225 61.9973 24.1207C62.0531 24.1445 62.1112 24.1623 62.1707 24.1736H65.7885C65.8399 24.1754 65.8901 24.1575 65.9288 24.1237C65.9676 24.0899 65.992 24.0426 65.9972 23.9914C66.2734 22.7042 66.5477 21.416 66.8201 20.1267C66.9435 19.5537 67.0699 18.9806 67.1963 18.3928C67.5607 18.3928 67.881 18.3928 68.2043 18.3928C68.2426 18.3999 68.2788 18.4154 68.3104 18.4383C68.3419 18.4612 68.3679 18.4908 68.3865 18.525C68.9743 19.7006 69.5621 20.8762 70.1499 22.0282L71.2138 24.1531L76.1041 24.1678Z" fill="#2356A5"/>
<path d="M58.0238 14.7162C58.0738 14.7397 58.0973 14.7603 58.1208 14.7603C59.4022 14.7603 60.6836 14.7603 61.962 14.7603C62.1119 14.7603 62.1883 14.6545 62.2089 14.4929C62.2588 14.0991 62.3235 13.7111 62.3911 13.3173C62.5527 12.4033 62.5821 11.4746 62.1295 10.6488C61.5065 9.52316 60.328 9.35564 59.217 9.30862C57.7121 9.21311 56.2022 9.2308 54.6999 9.36152C53.6029 9.43637 52.5434 9.79156 51.6229 10.3931C50.0124 11.5246 49.4216 13.2438 49.0249 15.0571C48.8221 15.9917 48.6869 16.941 48.4371 17.8668C48.1112 19.0746 47.9793 20.3265 48.0462 21.5757C48.0872 22.2203 48.3732 22.8249 48.8456 23.2655C49.5098 23.9004 50.368 24.1031 51.2526 24.1825C52.8464 24.3294 54.4497 24.3441 56.046 24.2266C57.3172 24.1807 58.5303 23.6825 59.4669 22.8218C60.2047 22.0977 60.7249 21.1814 60.9686 20.1767C61.1127 19.6566 61.1949 19.1217 61.3125 18.5603H57.198C57.1422 18.7866 57.0922 18.9953 57.0393 19.201C56.8982 19.7418 56.7043 20.2473 56.1782 20.5382C55.4405 20.9438 54.6353 20.8321 53.8506 20.8321C53.3862 20.8321 52.8925 20.7822 52.5692 20.4001C51.9814 19.73 52.3459 18.963 52.4664 18.2547C52.6633 17.1085 52.9483 15.98 53.2099 14.8485C53.3657 14.1696 53.5626 13.4731 54.2356 13.1292C55.2466 12.6149 56.3457 12.7383 57.4125 12.9147C57.9298 12.997 58.159 13.426 58.0973 13.9639C58.0709 14.2254 58.0268 14.4841 57.9915 14.7368" fill="#2356A5"/>
<path d="M44.4343 9.43508C44.3814 9.67607 44.3255 9.89649 44.2785 10.1169C43.9552 11.6471 43.6339 13.1783 43.3145 14.7104C43.0206 16.1299 42.7267 17.5494 42.4064 18.9601C42.2418 19.6655 42.1125 20.4296 41.2543 20.6882C40.3962 20.9468 39.5939 20.8528 38.7533 20.8087C37.6836 20.7499 37.3074 20.1974 37.5631 19.1658C37.8922 17.8404 38.1509 16.4944 38.4447 15.1572C38.7386 13.7377 39.0325 12.3182 39.3264 10.8987C39.4293 10.4167 39.5263 9.93469 39.6203 9.4292H35.7115C35.6831 9.48282 35.6595 9.53888 35.641 9.59672C35.3941 10.7253 35.1443 11.8509 34.9063 12.9824C34.6682 14.1138 34.4566 15.2042 34.2186 16.3121C33.846 17.8034 33.5517 19.3131 33.3369 20.8351C33.234 21.7785 33.2664 22.7366 34.1363 23.3832C34.8651 23.9239 35.7351 24.0768 36.605 24.162C38.2764 24.3457 39.9641 24.325 41.6305 24.1003C43.6231 23.8064 45.0838 22.8101 45.8302 20.9086C46.3798 19.5038 46.5708 17.9991 46.8971 16.5355C47.2497 14.9544 47.576 13.3732 47.911 11.7892C48.0726 11.0162 48.2284 10.2403 48.393 9.43802L44.4343 9.43508Z" fill="#2356A5"/>
<path d="M19.9209 9.44092H8.21522C7.97129 10.5577 7.7303 11.6716 7.47461 12.853H11.2452C10.44 16.6736 9.64647 20.3972 8.85002 24.1649H12.8293C13.6346 20.3952 14.4379 16.6236 15.2392 12.8501H19.2038C19.4419 11.7186 19.6741 10.6047 19.9209 9.44092Z" fill="#2356A5"/>
<path d="M28.7936 18.4781L29.1756 18.3869C30.2895 18.1489 31.321 17.7169 31.8647 16.6589C32.6414 15.1328 32.9994 13.4281 32.9022 11.7185C32.8913 11.3169 32.763 10.9273 32.5332 10.5978C32.3034 10.2682 31.9821 10.0132 31.6091 9.86408C30.9982 9.59305 30.3377 9.45194 29.6694 9.4497C26.8539 9.41737 24.0355 9.42031 21.22 9.41443C21.138 9.42103 21.0565 9.43281 20.9761 9.4497C19.9416 14.3606 18.9188 19.2539 17.8726 24.1678H21.8166C22.0948 22.8727 22.375 21.5884 22.6571 20.3149C22.6954 20.2969 22.7359 20.284 22.7776 20.2767C23.8444 20.2767 24.9083 20.2561 25.9722 20.2767C26.119 20.2799 26.2631 20.3162 26.3939 20.3829C26.5246 20.4495 26.6387 20.5448 26.7275 20.6617C27.2154 21.2935 26.9009 21.9489 26.7863 22.5955C26.6923 23.1186 26.5718 23.6359 26.4601 24.1737H30.4041C30.6098 22.9658 31.033 21.8049 31.0859 20.5764C31.13 19.5537 30.7627 19.0306 29.8633 18.7132C29.5113 18.6162 29.1542 18.5387 28.7936 18.481V18.4781ZM24.1765 13.2145C24.2001 13.094 24.2265 12.9735 24.253 12.853H27.3359C27.4417 12.853 28.0706 12.7648 28.3998 13.1469C28.5849 13.3673 28.6231 13.6435 28.5555 14.1784C28.4649 14.7663 28.3243 15.3454 28.1353 15.9094C28.0554 16.1706 27.8892 16.3969 27.6638 16.5512C27.4385 16.7055 27.1674 16.7787 26.895 16.7588C25.7489 16.7882 24.5997 16.7588 23.4183 16.7588C23.6456 15.7184 23.8699 14.6682 24.0913 13.6083C24.1178 13.476 24.1472 13.3408 24.1765 13.2086" fill="#2356A5"/>
</svg>
