<svg width="21" height="21" viewBox="0 0 21 21" fill="none" xmlns="http://www.w3.org/2000/svg">
<path fill-rule="evenodd" clip-rule="evenodd" d="M11.2267 11.2268C9.68061 12.7729 7.17389 12.7729 5.62779 11.2268C4.08169 9.68069 4.08169 7.17398 5.62779 5.62788C7.17389 4.08179 9.68061 4.08179 11.2267 5.62788C12.7728 7.17398 12.7728 9.68069 11.2267 11.2268ZM11.4918 13.7904C11.4042 13.7028 11.2695 13.6681 11.1595 13.7249C8.9169 14.8822 6.09347 14.5209 4.21357 12.641C1.88643 10.3139 1.88643 6.54081 4.21357 4.21367C6.54072 1.88653 10.3138 1.88653 12.6409 4.21367C14.8331 6.40589 14.9602 9.8812 13.0222 12.2222C13.0135 12.2328 13.0143 12.2484 13.024 12.2581L16.0885 15.3226C16.5116 15.7457 16.5116 16.4318 16.0885 16.8549C15.6654 17.278 14.9794 17.278 14.5562 16.8549L11.4918 13.7904Z" fill="#333333"/>
</svg>
