<svg width="16" height="17" viewBox="0 0 16 17" fill="none" xmlns="http://www.w3.org/2000/svg">
<path d="M12.6667 7.83337H3.33333C2.59695 7.83337 2 8.43033 2 9.16671V13.8334C2 14.5698 2.59695 15.1667 3.33333 15.1667H12.6667C13.403 15.1667 14 14.5698 14 13.8334V9.16671C14 8.43033 13.403 7.83337 12.6667 7.83337Z" stroke="#BDBDBD" stroke-width="1.5" stroke-linecap="round" stroke-linejoin="round"/>
<path d="M4.6665 7.83337V5.16671C4.6665 4.28265 5.01769 3.43481 5.64281 2.80968C6.26794 2.18456 7.11578 1.83337 7.99984 1.83337C8.88389 1.83337 9.73174 2.18456 10.3569 2.80968C10.982 3.43481 11.3332 4.28265 11.3332 5.16671V7.83337" stroke="#BDBDBD" stroke-width="1.5" stroke-linecap="round" stroke-linejoin="round"/>
</svg>
