<svg width="180" height="41" viewBox="0 0 180 41" fill="none" xmlns="http://www.w3.org/2000/svg">
<g id="logo2">
<path id="blueBg" d="M180 0H0V40.6452H180V0Z" fill="#1C49AD"/>
<path id="yellowBg" d="M177.097 2.90332H106.478V37.742H177.097V2.90332Z" fill="#F5BF41"/>
<g id="site">
<path id="Vector" d="M118.133 23.8428C117.999 23.8428 117.902 23.8167 117.801 23.8167C116.449 23.8167 115.094 23.8167 113.743 23.8167C113.422 23.8167 113.318 23.9548 113.254 24.2422C113.103 25.0542 113.044 25.8807 113.079 26.7059C113.058 27.1764 113.148 27.6451 113.343 28.074C113.537 28.5028 113.831 28.8795 114.198 29.1734C115.274 29.9946 116.576 30.0581 117.827 30.1029C120.093 30.1887 122.374 30.2298 124.598 29.6549C126.304 29.2144 127.85 28.5126 128.54 26.7096C129.231 24.9067 129.832 23.1149 129.556 21.1402C129.509 20.7053 129.336 20.2937 129.058 19.9561C128.78 19.6184 128.409 19.3695 127.992 19.2401C126.092 18.5869 124.098 18.613 122.135 18.4226C121.521 18.4195 120.909 18.3367 120.317 18.1762C120.146 18.1182 120.002 18.0005 119.912 17.8447C119.821 17.689 119.79 17.5058 119.824 17.3289C119.895 16.6569 119.936 15.929 120.638 15.5819C121.87 14.9771 123.206 15.2086 124.501 15.2534C125.427 15.2795 125.703 15.7051 125.588 16.6196C125.56 16.7701 125.523 16.9185 125.476 17.0638H130.328C130.425 16.5674 130.545 16.0783 130.612 15.5707C130.761 14.5292 130.814 13.4467 130.187 12.5582C129.559 11.6698 128.522 11.3152 127.454 11.2032C124.829 10.8813 122.172 10.9353 119.563 11.3637C118.802 11.4854 118.079 11.7781 117.448 12.2197C116.817 12.6614 116.294 13.2404 115.919 13.9133C115.204 15.2361 114.777 16.6952 114.665 18.1949C114.396 20.8639 115.505 21.7972 117.495 22.0883C119.484 22.3795 121.534 22.4616 123.553 22.6333C124.177 22.693 124.557 23.0066 124.438 23.7009C124.401 23.9286 124.352 24.1563 124.3 24.3803C124.109 25.153 123.691 25.698 122.848 25.8362C121.664 26.0227 120.46 26.0377 119.272 25.8809C118.226 25.7503 117.958 25.3023 118.126 24.2609C118.136 24.1218 118.138 23.9822 118.133 23.8428Z" fill="#1C49AD"/>
<path id="Vector_2" d="M160.181 22.1552C162.499 22.1552 164.724 22.1552 166.952 22.1552C167.699 22.1552 168.322 22.256 168.378 21.1921C168.479 20.3548 168.643 19.5263 168.867 18.7135H160.886C161.133 17.5936 161.357 16.5148 161.596 15.4509C161.637 15.2829 161.801 15.2755 161.969 15.2755C164.306 15.2755 166.646 15.2419 168.983 15.2755C169.8 15.2941 170.304 15.2269 170.398 14.234C170.548 13.2129 170.754 12.2009 171.017 11.2029H157.482C156.16 17.4244 154.835 23.6633 153.506 29.9196H167.221C167.494 28.5497 167.77 27.1946 168.061 25.7575H159.356C159.643 24.492 159.912 23.3124 160.181 22.1253" fill="#1C49AD"/>
<path id="Vector_3" d="M144.965 15.5444C143.928 20.3972 142.909 25.1492 141.882 29.9497H146.907C147.922 25.1417 148.933 20.3599 149.953 15.5519H154.958C155.283 14.1073 155.597 12.7 155.921 11.2441H141.083C140.785 12.6626 140.486 14.0699 140.172 15.5444H144.965Z" fill="#1C49AD"/>
<path id="Vector_4" d="M135.566 29.9646L139.526 11.2478H134.509C133.183 17.4693 131.858 23.7082 130.534 29.9646H135.566Z" fill="#1C49AD"/>
</g>
<g id="truck">
<path id="Vector_5" d="M96.6645 29.9386L91.5952 20.401L100.106 11.2256H93.9693C92.2335 13.1555 90.4679 15.0816 88.7433 17.0489C88.0975 17.7955 87.5226 18.542 86.3132 18.1016C86.7835 15.8444 87.2638 13.5487 87.7541 11.2144H82.6923C81.3783 17.4359 80.0631 23.6574 78.7466 29.8789C78.8174 29.9091 78.8912 29.9316 78.9668 29.946H83.562C83.6273 29.9483 83.691 29.9256 83.7402 29.8826C83.7894 29.8397 83.8205 29.7796 83.8271 29.7146C84.1779 28.0796 84.5264 26.4433 84.8723 24.8058C85.0291 24.0779 85.1896 23.35 85.3501 22.6034C85.813 22.6034 86.2198 22.6034 86.6305 22.6034C86.6791 22.6124 86.7251 22.6322 86.7652 22.6612C86.8052 22.6903 86.8383 22.7279 86.8619 22.7714C87.6085 24.2646 88.3551 25.7577 89.1016 27.221L90.453 29.9199L96.6645 29.9386Z" fill="white"/>
<path id="Vector_6" d="M73.6996 17.9336C73.763 17.9635 73.7929 17.9896 73.8228 17.9896C75.4503 17.9896 77.0778 17.9896 78.7017 17.9896C78.892 17.9896 78.9891 17.8552 79.0152 17.6499C79.0787 17.1497 79.1608 16.6569 79.2467 16.1567C79.452 14.9958 79.4893 13.8162 78.9144 12.7673C78.1231 11.3376 76.6262 11.1248 75.2151 11.0651C73.3037 10.9438 71.3858 10.9662 69.4777 11.1323C68.0842 11.2273 66.7385 11.6785 65.5693 12.4425C63.5237 13.8797 62.7734 16.0634 62.2694 18.3666C62.0119 19.5537 61.8402 20.7594 61.5229 21.9353C61.1089 23.4694 60.9414 25.0595 61.0264 26.6462C61.0784 27.465 61.4417 28.233 62.0417 28.7926C62.8854 29.5989 63.9754 29.8565 65.099 29.9573C67.1234 30.1439 69.1598 30.1626 71.1873 30.0133C72.802 29.955 74.3428 29.3223 75.5324 28.2289C76.4696 27.3092 77.1304 26.1454 77.4399 24.8693C77.6229 24.2086 77.7274 23.5292 77.8767 22.8162H72.6506C72.5797 23.1037 72.5162 23.3687 72.449 23.63C72.2699 24.3169 72.0235 24.9589 71.3553 25.3285C70.4184 25.8436 69.3955 25.7018 68.3989 25.7018C67.8091 25.7018 67.1819 25.6383 66.7713 25.153C66.0247 24.3019 66.4876 23.3276 66.6407 22.428C66.8908 20.9722 67.2529 19.5387 67.5851 18.1016C67.7829 17.2393 68.033 16.3546 68.8879 15.9178C70.172 15.2646 71.5681 15.4214 72.9231 15.6453C73.5801 15.7499 73.8713 16.2949 73.7929 16.978C73.7593 17.3102 73.7033 17.6387 73.6585 17.9597" fill="white"/>
<path id="Vector_7" d="M56.439 11.2255C56.3718 11.5316 56.3009 11.8115 56.2412 12.0915C55.8306 14.0351 55.4224 15.98 55.0168 17.926C54.6435 19.729 54.2702 21.532 53.8633 23.3238C53.6543 24.2197 53.49 25.1903 52.4 25.5188C51.31 25.8473 50.2909 25.7278 49.2233 25.6718C47.8645 25.5971 47.3867 24.8954 47.7115 23.5851C48.1296 21.9016 48.4581 20.1919 48.8314 18.4934C49.2047 16.6904 49.5779 14.8875 49.9512 13.0845C50.0819 12.4723 50.2051 11.8601 50.3245 11.218H45.3598C45.3236 11.2861 45.2936 11.3573 45.2702 11.4308C44.9566 12.8642 44.6393 14.2939 44.337 15.7311C44.0346 17.1683 43.7658 18.5532 43.4635 19.9605C42.9902 21.8546 42.6164 23.7722 42.3436 25.7054C42.2129 26.9037 42.254 28.1206 43.3589 28.9418C44.2847 29.6287 45.3896 29.8228 46.4946 29.931C48.6176 30.1644 50.7612 30.1381 52.8778 29.8527C55.4087 29.4794 57.264 28.2139 58.2121 25.7987C58.9102 24.0144 59.1528 22.1032 59.5672 20.2442C60.0151 18.2359 60.4295 16.2276 60.855 14.2155C61.0603 13.2338 61.2582 12.2483 61.4672 11.2292L56.439 11.2255Z" fill="white"/>
<path id="Vector_8" d="M25.303 11.2329H10.4348C10.125 12.6514 9.8189 14.0662 9.49414 15.5668H14.2835C13.2606 20.4196 12.2528 25.1492 11.2411 29.9347H16.2955C17.3183 25.1467 18.3386 20.3561 19.3565 15.5631H24.3921C24.6945 14.1259 24.9894 12.7111 25.303 11.2329Z" fill="white"/>
<path id="Vector_9" d="M36.5726 22.7117L37.0579 22.596C38.4727 22.2936 39.7829 21.7449 40.4735 20.4011C41.46 18.4627 41.9147 16.2975 41.7912 14.1261C41.7774 13.6159 41.6144 13.1211 41.3225 12.7025C41.0307 12.2839 40.6226 11.9599 40.1488 11.7706C39.3729 11.4263 38.5339 11.2471 37.685 11.2443C34.1089 11.2032 30.5291 11.2069 26.9529 11.1995C26.8488 11.2079 26.7453 11.2228 26.6431 11.2443C25.3291 17.4819 24.0301 23.6972 22.7012 29.9386H27.7107C28.0641 28.2937 28.42 26.6624 28.7783 25.0448C28.827 25.0219 28.8784 25.0056 28.9314 24.9963C30.2864 24.9963 31.6377 24.9701 32.989 24.9963C33.1754 25.0004 33.3585 25.0465 33.5246 25.1311C33.6907 25.2158 33.8356 25.3369 33.9484 25.4853C34.5681 26.2878 34.1686 27.1203 34.0231 27.9415C33.9036 28.606 33.7506 29.263 33.6087 29.9461H38.6183C38.8796 28.4119 39.4171 26.9374 39.4843 25.377C39.5403 24.078 39.0737 23.4135 37.9314 23.0104C37.4842 22.8872 37.0306 22.7887 36.5726 22.7155V22.7117ZM30.7082 16.0261C30.7381 15.8731 30.7717 15.72 30.8053 15.567H34.7211C34.8555 15.567 35.6543 15.455 36.0724 15.9402C36.3076 16.2202 36.3561 16.5711 36.2703 17.2505C36.1552 17.9972 35.9766 18.7328 35.7365 19.4492C35.635 19.7809 35.4239 20.0683 35.1377 20.2643C34.8515 20.4603 34.5071 20.5533 34.1612 20.528C32.7053 20.5653 31.2458 20.528 29.7452 20.528C30.0338 19.2065 30.3188 17.8726 30.6 16.5263C30.6336 16.3583 30.6709 16.1866 30.7082 16.0186" fill="white"/>
</g>
</g>
</svg>
