<svg width="20" height="21" viewBox="0 0 20 21" fill="none" xmlns="http://www.w3.org/2000/svg">
<path fill-rule="evenodd" clip-rule="evenodd" d="M10 0.0512695C4.48 0.0512695 0 4.64614 0 10.3077C0 15.9692 4.48 20.5641 10 20.5641C15.52 20.5641 20 15.9692 20 10.3077C20 4.64614 15.52 0.0512695 10 0.0512695ZM10 18.5128C5.59 18.5128 2 14.8308 2 10.3077C2 5.78462 5.59 2.10257 10 2.10257C14.41 2.10257 18 5.78462 18 10.3077C18 14.8308 14.41 18.5128 10 18.5128ZM7.97 7.71281C7.97 8.46153 8.54 8.96409 10.31 9.42563C12.07 9.89742 13.96 10.6769 13.97 12.9333C13.96 14.5846 12.76 15.4769 11.24 15.7743V17.4872H8.9V15.7436C7.4 15.4256 6.14 14.441 6.04 12.6974H7.76C7.85 13.641 8.48 14.3795 10.08 14.3795C11.79 14.3795 12.18 13.4974 12.18 12.9538C12.18 12.2154 11.79 11.5077 9.84 11.0359C7.67 10.5026 6.18 9.57947 6.18 7.74358C6.18 6.19486 7.39 5.18973 8.9 4.86153V3.12819H11.23V4.88204C12.85 5.29229 13.67 6.55383 13.72 7.92819H12.01C11.97 6.92306 11.45 6.24614 10.07 6.24614C8.76 6.24614 7.97 6.85127 7.97 7.71281Z" fill="#67BB66"/>
</svg>
