<svg width="24" height="26" viewBox="0 0 24 26" fill="none" xmlns="http://www.w3.org/2000/svg">
<path fill-rule="evenodd" clip-rule="evenodd" d="M12 2.93591C6.48 2.93591 2 7.53079 2 13.1923C2 18.8539 6.48 23.4487 12 23.4487C17.52 23.4487 22 18.8539 22 13.1923C22 7.53079 17.52 2.93591 12 2.93591ZM12 21.3975C7.59 21.3975 4 17.7154 4 13.1923C4 8.66926 7.59 4.98721 12 4.98721C16.41 4.98721 20 8.66926 20 13.1923C20 17.7154 16.41 21.3975 12 21.3975ZM9.97 10.5975C9.97 11.3462 10.54 11.8487 12.31 12.3103C14.07 12.7821 15.96 13.5616 15.97 15.818C15.96 17.4692 14.76 18.3616 13.24 18.659V20.3718H10.9V18.6282C9.4 18.3103 8.14 17.3257 8.04 15.5821H9.76C9.85 16.5257 10.48 17.2641 12.08 17.2641C13.79 17.2641 14.18 16.3821 14.18 15.8385C14.18 15.1 13.79 14.3923 11.84 13.9205C9.67 13.3872 8.18 12.4641 8.18 10.6282C8.18 9.0795 9.39 8.07437 10.9 7.74617V6.01284H13.23V7.76668C14.85 8.17694 15.67 9.43848 15.72 10.8128H14.01C13.97 9.80771 13.45 9.13078 12.07 9.13078C10.76 9.13078 9.97 9.73591 9.97 10.5975Z" fill="#67BB66"/>
</svg>
