<svg width="24" height="26" viewBox="0 0 24 26" fill="none" xmlns="http://www.w3.org/2000/svg">
<path fill-rule="evenodd" clip-rule="evenodd" d="M12 4.60254C9.79 4.60254 8 6.43844 8 8.7051C8 10.9718 9.79 12.8077 12 12.8077C14.21 12.8077 16 10.9718 16 8.7051C16 6.43844 14.21 4.60254 12 4.60254ZM14.1 8.70508C14.1 7.51534 13.16 6.55124 12 6.55124C10.84 6.55124 9.9 7.51534 9.9 8.70508C9.9 9.89483 10.84 10.8589 12 10.8589C13.16 10.8589 14.1 9.89483 14.1 8.70508ZM18.1 17.9359C18.1 17.2794 14.97 15.782 12 15.782C9.03001 15.782 5.90001 17.2794 5.90001 17.9359V19.0641H18.1V17.9359ZM4 17.9359C4 15.2077 9.33 13.8333 12 13.8333C14.67 13.8333 20 15.2077 20 17.9359V21.0128H4V17.9359Z" fill="#67BB66"/>
</svg>
