<svg width="23" height="22" viewBox="0 0 23 22" fill="none" xmlns="http://www.w3.org/2000/svg">
<path d="M21.2052 15.8275V18.7498C21.2063 19.021 21.1507 19.2896 21.0418 19.5381C20.9329 19.7867 20.7731 20.0098 20.5728 20.1932C20.3725 20.3766 20.1361 20.5162 19.8786 20.6032C19.6211 20.6901 19.3482 20.7223 19.0775 20.6979C16.0741 20.3722 13.1892 19.348 10.6545 17.7075C8.29625 16.2119 6.29688 14.2165 4.79837 11.863C3.14887 9.32179 2.12236 6.42856 1.80199 3.41767C1.7776 3.1483 1.80968 2.87682 1.89618 2.6205C1.98268 2.36418 2.1217 2.12865 2.30441 1.9289C2.48712 1.72914 2.7095 1.56954 2.95739 1.46026C3.20529 1.35098 3.47326 1.29442 3.74427 1.29416H6.67232C7.14599 1.28951 7.60519 1.45691 7.96434 1.76516C8.32348 2.07342 8.55806 2.50149 8.62436 2.96959C8.74794 3.90477 8.97714 4.823 9.30757 5.70676C9.43889 6.05541 9.46731 6.43432 9.38946 6.7986C9.31162 7.16287 9.13078 7.49724 8.86836 7.76208L7.62882 8.99917C9.01823 11.4378 11.0414 13.457 13.4849 14.8437L14.7245 13.6066C14.9898 13.3447 15.3249 13.1642 15.6899 13.0865C16.0549 13.0088 16.4345 13.0372 16.7839 13.1683C17.6694 13.498 18.5894 13.7268 19.5265 13.8501C20.0006 13.9169 20.4336 14.1552 20.7431 14.5198C21.0526 14.8844 21.2171 15.3498 21.2052 15.8275Z" stroke="#2356A5" stroke-width="1.5" stroke-linecap="round" stroke-linejoin="round"/>
</svg>
