<svg width="16" height="17" viewBox="0 0 16 17" fill="none" xmlns="http://www.w3.org/2000/svg">
<path fill-rule="evenodd" clip-rule="evenodd" d="M8.31359 0.78833C4.15736 0.78833 0.78418 4.16151 0.78418 8.31774C0.78418 12.474 4.15736 15.8472 8.31359 15.8472C12.4698 15.8472 15.843 12.474 15.843 8.31774C15.843 4.16151 12.4698 0.78833 8.31359 0.78833ZM6.8077 11.706L11.3254 8.31776L6.8077 4.92952V11.706ZM2.29006 8.31772C2.29006 11.6382 4.99312 14.3413 8.31359 14.3413C11.6341 14.3413 14.3371 11.6382 14.3371 8.31772C14.3371 4.99725 11.6341 2.2942 8.31359 2.2942C4.99312 2.2942 2.29006 4.99725 2.29006 8.31772Z" fill="#222D48"/>
</svg>
