<svg width="19" height="19" viewBox="0 0 19 19" fill="none" xmlns="http://www.w3.org/2000/svg">
<path d="M5 7.34717V2.09717H14V7.34717" stroke="#2356A5" stroke-width="1.5" stroke-linecap="round" stroke-linejoin="round"/>
<path d="M5 14.0972H3.5C3.10218 14.0972 2.72064 13.9391 2.43934 13.6578C2.15804 13.3765 2 12.995 2 12.5972V8.84717C2 8.44934 2.15804 8.06781 2.43934 7.78651C2.72064 7.5052 3.10218 7.34717 3.5 7.34717H15.5C15.8978 7.34717 16.2794 7.5052 16.5607 7.78651C16.842 8.06781 17 8.44934 17 8.84717V12.5972C17 12.995 16.842 13.3765 16.5607 13.6578C16.2794 13.9391 15.8978 14.0972 15.5 14.0972H14" stroke="#2356A5" stroke-width="1.5" stroke-linecap="round" stroke-linejoin="round"/>
<path d="M14 11.0972H5V17.0972H14V11.0972Z" stroke="#2356A5" stroke-width="1.5" stroke-linecap="round" stroke-linejoin="round"/>
</svg>
