<svg width="94" height="54" viewBox="0 0 94 54" fill="none" xmlns="http://www.w3.org/2000/svg">
<path d="M83.3345 42.9459C83.3345 39.9952 80.8323 37.493 77.8816 37.493C74.9308 37.493 72.4287 39.9952 72.4287 42.9459C72.4287 45.8967 74.9308 48.3989 77.8816 48.3989C80.8323 48.3989 83.3345 45.8967 83.3345 42.9459ZM82.5689 42.9459C82.5689 45.5263 80.4619 47.6333 77.8816 47.6333C75.3012 47.6333 73.1942 45.5263 73.1942 42.9459C73.1942 40.3656 75.3012 38.2586 77.8816 38.2586C80.4619 38.2586 82.5689 40.3656 82.5689 42.9459Z" stroke="#222D48" stroke-width="2"/>
<path d="M21.3867 42.9459C21.3867 39.9952 18.8845 37.493 15.9338 37.493C12.8173 37.493 10.4809 39.9765 10.4809 42.9459C10.4809 45.8967 12.9831 48.3989 15.9338 48.3989C18.8845 48.3989 21.3867 45.8967 21.3867 42.9459ZM20.6212 42.9459C20.6212 45.5263 18.5141 47.6333 15.9338 47.6333C13.3535 47.6333 11.2464 45.5263 11.2464 42.9459C11.2464 40.3656 13.3535 38.2586 15.9338 38.2586C18.5141 38.2586 20.6212 40.3656 20.6212 42.9459Z" stroke="#222D48" stroke-width="2"/>
<path d="M51.623 42.1022H27.9958V44.1583H51.623V42.1022Z" stroke="#222D48" stroke-width="2"/>
<path d="M80.3908 31.7815L80.3931 31.9529L80.9376 32.2251C81.2531 32.3829 81.3674 32.4825 81.4375 32.576C81.5105 32.6733 81.6101 32.8658 81.689 33.3387L81.6955 33.3781L81.7052 33.4169C81.7565 33.622 81.7971 33.7584 81.8299 33.8606C81.8395 33.8904 81.8505 33.9235 81.8578 33.9454C81.8596 34.0041 81.8597 34.0968 81.8597 34.2806V34.808L82.295 35.1059L82.8597 34.2806L82.2951 35.1059L82.2952 35.106L82.2957 35.1063L82.2976 35.1076L82.3051 35.1128L82.3346 35.1329L82.4467 35.2097L82.8513 35.4863C83.1884 35.7168 83.6437 36.0281 84.1164 36.3509C84.9312 36.9073 85.805 37.5032 86.2087 37.7757C86.2099 37.7781 86.2111 37.7805 86.2123 37.783C86.2618 37.8825 86.3689 38.0977 86.5775 38.3063L86.8704 38.5992H87.2846H88.5752H89.5752V37.5992V31.7776H92V39.9178H89.6814H88.5752H87.6533H86.6533V40.9178V41.2524C85.8749 37.1017 82.2789 34.018 77.8818 34.018C72.9046 34.018 68.9539 37.9688 68.9539 42.9459V42.9481V42.9502V42.9524V42.9546V42.9568V42.959V42.9612V42.9634V42.9657V42.9679V42.9702V42.9724V42.9747V42.9769V42.9792V42.9815V42.9838V42.9861V42.9884V42.9907V42.993V42.9954V42.9977V43.0001V43.0024V43.0048V43.0071V43.0095V43.0119V43.0143V43.0167V43.0191V43.0215V43.0239V43.0263V43.0288V43.0312V43.0336V43.0361V43.0385V43.041V43.0435V43.0459V43.0484V43.0509V43.0534V43.0559V43.0584V43.0609V43.0634V43.066V43.0685V43.071V43.0736V43.0761V43.0787V43.0812V43.0838V43.0864V43.0889V43.0915V43.0941V43.0967V43.0993V43.1019V43.1045V43.1071V43.1097V43.1124V43.115V43.1176V43.1203V43.1229V43.1255V43.1282V43.1308V43.1335V43.1362V43.1388V43.1415V43.1442V43.1469V43.1496V43.1523V43.155V43.1577V43.1604V43.1631V43.1658V43.1685V43.1712V43.174V43.1767V43.1794V43.1822V43.1849V43.1876V43.1904V43.1931V43.1959V43.1987V43.2014V43.2042V43.207V43.2097V43.2125V43.2153V43.2181V43.2209V43.2236V43.2264V43.2292V43.232V43.2348V43.2376V43.2404V43.2432V43.2461V43.2489V43.2517V43.2545V43.2573V43.2601V43.263V43.2658V43.2686V43.2715V43.2743V43.2771V43.28V43.2828V43.2857V43.2885V43.2913V43.2942V43.297V43.2999V43.3028V43.3056V43.3085V43.3113V43.3142V43.317V43.3199V43.3228V43.3256V43.3285V43.3314V43.3342V43.3371V43.34V43.3428V43.3457V43.3486V43.3515V43.3543V43.3572V43.3601V43.363V43.3659V43.3687V43.3716V43.3745V43.3774V43.3802V43.3831V43.386V43.3889V43.3918V43.3946V43.3975V43.4004V43.4033V43.4062V43.4091V43.4119V43.4148V43.4177V43.4206V43.4234V43.4263V43.4292V43.4321V43.435V43.4378V43.4407V43.4436V43.4465V43.4493V43.4522V43.4551V43.4579V43.4608V43.4637V43.4665V43.4694V43.4723V43.4751V43.478V43.4809V43.4837V43.4866V43.4894V43.4923V43.4951V43.498V43.5008V43.5037V43.5065V43.5094V43.5122V43.5151V43.5179V43.5207V43.5236V43.5264V43.5292V43.5321V43.5349V43.5377V43.5405V43.5433V43.5461V43.549V43.5518V43.5546V43.5574V43.5602V43.563V43.5658V43.5686V43.5714V43.5741V43.5769V43.5797V43.5825V43.5853V43.588V43.5908V43.5936V43.5963V43.5991V43.6018V43.6046V43.6073V43.6101V43.6128V43.6155V43.6183V43.621V43.6237V43.6264V43.6292V43.6319V43.6346V43.6373V43.64V43.6427V43.6454V43.648V43.6507V43.6534V43.6561V43.6587V43.6614V43.6641V43.6667V43.6694V43.672V43.6746V43.6773V43.6799V43.6825V43.6852V43.6878V43.6904V43.693V43.6956V43.6982V43.7008V43.7033V43.7059V43.7085V43.7111V43.7136V43.7162V43.7187V43.7213V43.7238V43.7263V43.7289V43.7314V43.7339V43.7364V43.7389V43.7414V43.7439V43.7464V43.7488V43.7513V43.7538V43.7562V43.7587V43.7611V43.7636V43.766V43.7684V43.7708V43.7733V43.7757V43.7781V43.7804V43.7828V43.7852V43.7876V43.7896H58.4168V42.3928V41.3928H57.4168H54.5451V40.3647V39.3647H53.5451H26.2585H25.2585V40.3647V41.3928H24.7291C24.2358 38.8297 22.6792 36.5989 20.4956 35.2806H38.4269H39.4269V34.2806V21.8216H50.517V27.6433V28.6433H51.517H51.5172H51.5173H51.5176H51.5179H51.5182H51.5187H51.5192H51.5198H51.5204H51.5211H51.5219H51.5227H51.5236H51.5245H51.5256H51.5267H51.5278H51.529H51.5303H51.5317H51.5331H51.5346H51.5361H51.5377H51.5394H51.5411H51.5429H51.5448H51.5467H51.5487H51.5508H51.5529H51.555H51.5573H51.5596H51.5619H51.5644H51.5668H51.5694H51.572H51.5747H51.5774H51.5802H51.583H51.5859H51.5889H51.5919H51.595H51.5982H51.6014H51.6046H51.608H51.6114H51.6148H51.6183H51.6219H51.6255H51.6292H51.6329H51.6367H51.6406H51.6445H51.6485H51.6525H51.6566H51.6607H51.6649H51.6692H51.6735H51.6779H51.6823H51.6868H51.6913H51.6959H51.7006H51.7053H51.71H51.7149H51.7197H51.7247H51.7296H51.7347H51.7398H51.7449H51.7501H51.7554H51.7607H51.766H51.7715H51.7769H51.7824H51.788H51.7937H51.7993H51.8051H51.8109H51.8167H51.8226H51.8285H51.8345H51.8406H51.8467H51.8528H51.859H51.8653H51.8716H51.8779H51.8843H51.8908H51.8973H51.9038H51.9104H51.9171H51.9238H51.9306H51.9374H51.9442H51.9511H51.9581H51.9651H51.9721H51.9792H51.9864H51.9935H52.0008H52.0081H52.0154H52.0228H52.0302H52.0377H52.0452H52.0528H52.0604H52.0681H52.0758H52.0835H52.0914H52.0992H52.1071H52.115H52.123H52.1311H52.1391H52.1473H52.1554H52.1636H52.1719H52.1802H52.1885H52.1969H52.2053H52.2138H52.2223H52.2309H52.2395H52.2482H52.2568H52.2656H52.2744H52.2832H52.292H52.3009H52.3099H52.3189H52.3279H52.337H52.3461H52.3552H52.3644H52.3737H52.383H52.3923H52.4016H52.411H52.4205H52.4299H52.4395H52.449H52.4586H52.4683H52.4779H52.4876H52.4974H52.5072H52.517H52.5269H52.5368H52.5467H52.5567H52.5667H52.5768H52.5869H52.597H52.6072H52.6174H52.6276H52.6379H52.6482H52.6586H52.669H52.6794H52.6899H52.7004H52.7109H52.7215H52.7321H52.7427H52.7534H52.7641H52.7748H52.7856H52.7964H52.8073H52.8182H52.8291H52.84H52.851H52.862H52.8731H52.8841H52.8953H52.9064H52.9176H52.9288H52.94H52.9513H52.9626H52.974H52.9853H52.9967H53.0082H53.0196H53.0311H53.0427H53.0542H53.0658H53.0774H53.0891H53.1007H53.1125H53.1242H53.136H53.1478H53.1596H53.1715H53.1833H53.1953H53.2072H53.2192H53.2312H53.2432H53.2552H53.2673H53.2794H53.2916H53.3038H53.3159H53.3282H53.3404H53.3527H53.365H53.3773H53.3897H53.4021H53.4145H53.4269H53.4394H53.4518H53.4643H53.4769H53.4894H53.502H53.5146H53.5273H53.5399H53.5526H53.5653H53.578H53.5908H53.6036H53.6164H53.6292H53.6421H53.6549H53.6678H53.6807H53.6937H53.7066H53.7196H53.7326H53.7457H53.7587H53.7718H53.7849H53.798H53.8111H53.8243H53.8375H53.8507H53.8639H53.8771H53.8904H53.9037H53.917H53.9303H53.9436H53.957H53.9703H53.9837H53.9972H54.0106H54.024H54.0375H54.051H54.0645H54.078H54.0916H54.1051H54.1187H54.1323H54.1459H54.1596H54.1732H54.1869H54.2006H54.2143H54.228H54.2417H54.2554H54.2692H54.283H54.2968H54.3106H54.3244H54.3383H54.3521H54.366H54.3799H54.3938H54.4077H54.4216H54.4355H54.4495H54.4635H54.4774H54.4914H54.5054H54.5195H54.5335H54.5475H54.5616H54.5757H54.5897H54.6038H54.618H54.6321H54.6462H54.6603H54.6745H54.6887H54.7028H54.717H54.7312H54.7454H54.7596H54.7739H54.7881H54.8024H54.8166H54.8309H54.8452H54.8594H54.8737H54.888H54.9024H54.9167H54.931H54.9454H54.9597H54.974H54.9884H55.0028H55.0172H55.0315H55.0459H55.0603H55.0747H55.0892H55.1036H55.118H55.1324H55.1469H55.1613H55.1758H55.1902H55.2047H55.2192H55.2336H55.2481H55.2626H55.2771H55.2916H55.3061H55.3206H55.3351H55.3496H55.3641H55.3786H55.3931H55.4076H55.4222H55.4367H55.4512H55.4658H55.4803H55.4948H55.5094H55.5239H55.5385H55.553H55.5676H55.5821H55.5966H55.6112H55.6258H55.6403H55.6549H55.6694H55.684H55.6985H55.7131H55.7276H55.7422H55.7567H55.7713H55.7859H55.8004H55.815H55.8295H55.8441H55.8586H55.8731H55.8877H55.9022H55.9168H55.9313H55.9458H55.9604H55.9749H55.9894H56.004H56.0185H56.033H56.0475H56.062H56.0765H56.091H56.1055H56.12H56.1345H56.149H56.1635H56.1779H56.1924H56.2069H56.2213H56.2358H56.2502H56.2647H56.2791H56.2935H56.3079H56.3224H56.3368H56.3512H56.3656H56.38H56.3943H56.4087H56.4231H56.4374H56.4518H56.4661H56.4804H56.4948H56.5091H56.5234H56.5377H56.552H56.5663H56.5805H56.5948H56.609H56.6233H56.6375H56.6517H56.6659H56.6801H56.6943H56.7085H56.7227H56.7368H56.751H56.7651H56.7792H56.7934H56.8075H56.8215H56.8356H56.8497H56.8637H57.8637V27.6433V23.0341C57.8637 22.8425 57.9408 22.6655 58.0595 22.537C58.1853 22.4006 58.3013 22.3747 58.3387 22.3747C62.0041 22.3747 65.0568 22.376 67.6683 22.605L67.8671 23.5989L67.9396 23.9614L80.3908 31.7815ZM80.3908 31.7815L79.6225 31.551C78.4601 31.2023 77.1675 30.9341 75.4826 30.5844C74.5598 30.3929 73.5193 30.177 72.3181 29.9101L72.3118 29.9086L72.4276 30.4879L71.4089 30.6577L70.3027 30.8421L69.3476 31.0013L69.1577 30.0518L69.1102 29.8144V30.0401C69.1102 30.5497 68.8655 30.9756 68.5869 31.2542C68.3082 31.5328 67.8823 31.7776 67.3727 31.7776H64.6072H64.0188L63.7331 31.2632L63.097 30.1182H60.3667C59.8571 30.1182 59.4312 29.8735 59.1526 29.5949C59.0887 29.531 59.0266 29.4594 58.9688 29.3808H58.4449V28.3808L80.3908 31.7815ZM68.7207 27.8667L67.9754 24.1403L68.7497 28.012L68.7207 27.8667ZM70.982 16.8717V16.3968V15.3279L71.1663 15.3402V15H31.2782C32.4281 15.4637 33.4742 16.1215 34.3731 16.8717H70.982ZM7.13865 41.3928C7.63196 38.8297 9.18858 36.5989 11.3722 35.2806H6.42485V40.9178V41.3928H7.13865ZM4.60922 42.3928V41.9178H3.65932V43.0521H4.60922V42.3928Z" stroke="#222D48" stroke-width="2"/>
<path d="M5.71533 18.978V18.3726L1.99989 16.9344V33.0055L5.71533 31.5673V30.9619V18.978Z" stroke="#222D48" stroke-width="2"/>
<path d="M27.5493 32.3587C31.6062 32.3587 35.0303 28.9347 35.0303 24.8778C35.0303 20.8492 31.635 17.5812 27.5493 17.5812H12.6154C11.1529 17.5812 9.83456 17.9713 8.63749 18.7591V31.1808C9.83456 31.9686 11.1529 32.3587 12.6154 32.3587H27.5493Z" stroke="#222D48" stroke-width="2"/>
</svg>
