<svg width="25" height="24" viewBox="0 0 25 24" fill="none" xmlns="http://www.w3.org/2000/svg">
<g clip-path="url(#clip0)">
<path d="M18.1211 20H7.12111C6.84473 20 6.62109 20.2236 6.62109 20.5C6.62109 20.7764 6.84473 21 7.12111 21H18.1211C18.3975 21 18.6211 20.7764 18.6211 20.5C18.6211 20.2236 18.3975 20 18.1211 20Z" fill="#F4F4F4"/>
<path d="M22.6211 3H2.62111C1.51856 3 0.621094 3.89695 0.621094 5.00002V17C0.621094 18.103 1.51856 19 2.62111 19H22.6211C23.7237 19 24.6211 18.1031 24.6211 17V5.00002C24.6211 3.89695 23.7236 3 22.6211 3ZM16.3731 11.4321L10.3731 14.9321C10.2949 14.977 10.208 15 10.1211 15C10.0352 15 9.94922 14.978 9.87206 14.9336C9.71677 14.8442 9.62109 14.6792 9.62109 14.5V7.5C9.62109 7.3208 9.71681 7.15575 9.87206 7.06641C10.0283 6.97753 10.2188 6.97898 10.3731 7.06786L16.3731 10.5679C16.5264 10.6577 16.6211 10.8223 16.6211 11C16.6211 11.1777 16.5264 11.3423 16.3731 11.4321Z" fill="#F4F4F4"/>
</g>
<defs>
<clipPath id="clip0">
<rect width="24" height="24" fill="white" transform="translate(0.621094)"/>
</clipPath>
</defs>
</svg>
