<svg width="93" height="52" viewBox="0 0 93 52" fill="none" xmlns="http://www.w3.org/2000/svg">
<path fill-rule="evenodd" clip-rule="evenodd" d="M4.71796 28.7797H7.09602H10.1617C10.1617 28.7797 9.02653 28.0025 7.96682 26.7797C7.0393 25.7094 6.16963 24.2977 6.16963 22.7669C6.16963 19.4873 6.35109 12.1992 6.35109 12.1992L12.7022 5.27542H43.1874L44.0947 4H48.0868L48.9941 5.45763H51.712H53.712V7.45763V27.5085V29.5085H55.7041H55.712H57.7041V27.5085V8.00847C57.7041 7.09746 58.43 6.36864 59.1558 6.36864C63.3294 6.36864 69.499 6.36864 72.4024 6.73305C73.1282 6.73305 73.854 7.27966 74.0355 8.00847C74.2234 8.49905 74.497 9.20066 74.8174 10.0226C76.0443 13.1694 77.9589 18.0804 78.3905 19.6695C82.7456 21.1271 85.6489 22.2203 88.5523 23.3136L88.7046 23.379C89.8664 23.8769 90.3743 24.0946 90.5483 25.3178C90.7298 26.0466 90.7298 27.6864 90.7298 28.2331H88.7298C88.7298 27.9599 88.7296 27.4489 88.7087 26.9234C88.6854 26.3399 88.6423 25.9407 88.6076 25.801C88.591 25.7346 88.5779 25.6673 88.5683 25.5995C88.5629 25.5619 88.5576 25.5299 88.5526 25.5031L88.5461 25.4998C88.4062 25.4281 88.2259 25.3497 87.9167 25.2172L87.9158 25.2168L87.805 25.1693C84.9208 24.0833 82.053 23.0044 77.7557 21.5661C77.1217 21.3539 76.6357 20.8389 76.4605 20.1937C76.0653 18.7387 74.2119 13.9754 72.954 10.7491C72.6346 9.92968 72.3584 9.22137 72.1678 8.72387L72.166 8.71903L72.1533 8.71748C69.524 8.38748 63.9058 8.36961 59.7041 8.36869V29.5085C59.7041 30.613 58.8087 31.5085 57.7041 31.5085H55.6559L65.7588 33.7509C66.8206 33.9866 67.4994 35.0275 67.2869 36.0941L66.8558 38.2585H71.4911V37.8898C71.4911 34.8391 72.7508 32.3171 74.8183 30.592C76.85 28.8968 79.5518 28.0551 82.3826 28.0551C85.3399 28.0551 88.0179 29.1561 89.9652 31.0201C89.9486 30.8916 89.9255 30.7582 89.8952 30.6304C89.8681 30.5161 89.8401 30.4275 89.816 30.364C89.4557 30.0597 89.1882 29.7152 89.0075 29.3523C88.8937 29.1237 88.8235 28.9062 88.7823 28.7131C88.7618 28.6171 88.7487 28.5281 88.7407 28.4476C88.7367 28.4074 88.734 28.3693 88.7322 28.3335C88.7314 28.3156 88.7308 28.2983 88.7304 28.2815L88.7299 28.2568L88.7298 28.2448L88.7298 28.2389L88.7298 28.236C88.7298 28.2345 88.7298 28.2331 90.7298 28.2331C90.7298 28.2331 90.7298 28.5975 91.2742 28.9619C91.8185 29.5085 92 30.7839 92 31.5127V33.517C92 33.5799 92.0037 33.6653 92.0096 33.7687C92.0144 33.8528 92.0207 33.9488 92.0275 34.0541V34.0541C92.0942 35.0784 92.2184 36.9852 91.6313 37.4584C91.494 37.5691 91.3177 37.6013 91.0927 37.5254C91.0141 36.8939 90.8711 36.2889 90.6704 35.716C90.5007 35.2319 90.2898 34.7707 90.0415 34.3357C88.5496 31.7216 85.7102 30.0551 82.3826 30.0551C77.4832 30.0551 73.4911 32.9703 73.4911 37.8898V38.2585V40.2585H71.4911H66.4574H65.3671H64.4807H64.4181L64.5594 39.5493L64.8165 38.2585L64.9477 37.6L65.0781 36.9454L65.3254 35.7034L63.9717 35.4029L63.5068 35.2997L51.5031 32.6354L50.0397 32.3106L48.0868 31.8771L47.7579 33.5283L47.696 33.8391L47.6923 33.8575L47.2873 35.8911L47.1795 36.4322L47.1054 36.4216L46.165 36.2867L45.9093 36.25L42.8245 40.2585H40.1065H38.4551H38.1065V38.381V38.2585V36.0678L33.3886 32.2415H26.856L22.1381 36.0678V38.2585V38.5378V40.2585H21.8065H20.1381H18.146L17.0572 43.9025H6.89941H4.89941V42.2627C2.98278 41.4608 1.4879 39.5297 1.15722 37.339C1.11221 37.0408 1.08877 36.7378 1.08877 36.4322V36.4321C1.08877 36.0678 1.08877 35.7034 1.27022 35.339H0V34.7065V33.339V32.7881L4.71796 28.7797ZM11.2944 27.1313C11.2942 27.1311 11.2939 27.131 11.2937 27.1308C11.2932 27.1305 11.2928 27.1302 11.2924 27.1299L11.2932 27.1305L11.2769 27.1189C11.2582 27.1056 11.2264 27.0827 11.1833 27.0507C11.097 26.9865 10.9669 26.8869 10.8076 26.756C10.4859 26.4918 10.0613 26.1132 9.64275 25.6547C8.73722 24.6628 8.16963 23.6366 8.16963 22.7669C8.16963 21.1503 8.21454 18.5277 8.25995 16.2938C8.28258 15.1802 8.30522 14.1686 8.3222 13.4355L8.33243 12.9978L13.5816 7.27542H43.1874C43.8346 7.27542 44.4419 6.96218 44.8171 6.43475L45.1264 6H46.9759L47.2961 6.51451C47.6612 7.10105 48.3032 7.45763 48.9941 7.45763H51.712V29.5085C51.712 29.966 51.8656 30.3876 52.1241 30.7246L48.5202 29.9246C47.9949 29.8081 47.4449 29.908 46.9943 30.2019C46.5436 30.4958 46.2304 30.9588 46.1253 31.4864L45.5691 34.2791C45.0818 34.3633 44.6349 34.6267 44.3243 35.0302L41.8399 38.2585H40.1065V36.0678C40.1065 35.4649 39.8345 34.8942 39.3663 34.5144L34.6483 30.6882C34.2921 30.3992 33.8473 30.2415 33.3886 30.2415H26.856C26.3973 30.2415 25.9525 30.3992 25.5962 30.6882L20.8783 34.5144C20.41 34.8942 20.1381 35.4649 20.1381 36.0678V38.2585H18.146C17.2619 38.2585 16.4827 38.8389 16.2297 39.6859L15.5674 41.9025H6.8668C6.7466 41.2453 6.30241 40.6817 5.67133 40.4177C4.2411 39.8193 3.08877 38.1804 3.08877 36.4322V36.4321C3.08877 36.3359 3.08893 36.2759 3.09063 36.2211C3.09145 36.1949 3.0925 36.1753 3.09352 36.1609C3.36626 35.5561 3.3217 34.8531 2.97066 34.2861C2.7757 33.9713 2.50106 33.7223 2.18181 33.5588L5.45286 30.7797H10.1617C11.0385 30.7797 11.8131 30.2086 12.0723 29.371C12.3312 28.5345 12.0159 27.6271 11.2944 27.1313ZM43.9132 42.2627L46.0889 42.7335L62.8005 46.3499L64.9625 46.8178L64.4618 44.6632L63.8863 42.1865L63.749 41.5955L63.6923 41.3517L62.6148 41.1233L62.2628 41.0487L48.7687 38.1882L48.2999 38.0889L47.361 37.8898L47.2314 38.0541L46.9443 38.4183L45.2914 40.5147L43.9132 42.2627ZM62.2998 44.1953L47.4671 40.9855L48.162 40.1041L62.0323 43.0443L62.2998 44.1953ZM62.4798 40.0498L62.4796 40.0498L62.4302 40.0391L60.5254 39.6252L49.0531 37.1325L49.0005 37.1211L49.0679 36.8083L49.1918 36.2335L49.1933 36.2269L49.6146 34.2717L49.6477 34.2789L51.0743 34.5889L51.569 34.6964L62.9924 37.1784L63.0936 37.2004L63.0938 37.2005L63.0823 37.2542L62.9011 38.0947L62.6858 39.0939L62.5165 39.8797L62.4798 40.0498ZM36.4734 40.8051C36.4734 40.9969 36.4644 41.1871 36.447 41.3751C36.1499 44.5811 33.379 47.1822 30.1223 47.1822C26.8656 47.1822 24.0946 44.5811 23.7975 41.3751C23.7801 41.1871 23.7712 40.9969 23.7712 40.8051C23.7804 40.6205 23.7961 40.4382 23.8181 40.2585C23.8787 39.7634 23.987 39.2879 24.1381 38.8369C25.0145 36.2201 27.3304 34.428 30.1223 34.428C32.8413 34.428 35.2217 36.2411 36.1065 38.7055C36.2841 39.2001 36.4014 39.7209 36.4492 40.2585C36.4652 40.4389 36.4734 40.6212 36.4734 40.8051ZM73.1282 16.2076C73.1282 15.9621 73.083 15.7187 72.9949 15.4896L71.9855 12.8654C71.8057 12.0316 71.222 11.5021 70.925 11.2784C70.5163 10.9706 69.8766 10.6483 69.1321 10.6483H64.4221C63.6929 10.6483 62.931 10.9013 62.3472 11.4875C61.7641 12.073 61.5148 12.834 61.5148 13.5593V16.7542C61.5148 17.4796 61.7641 18.2406 62.3472 18.826C62.7932 19.2739 63.3432 19.5273 63.9031 19.6219L69.4156 22.0468C69.6694 22.1584 69.9436 22.2161 70.2209 22.2161C70.9501 22.2161 71.712 21.9631 72.2958 21.3769C72.8789 20.7914 73.1282 20.0304 73.1282 19.3051V16.3898V16.2076ZM69.1321 12.6483C69.4951 12.6483 70.0394 13.0127 70.0394 13.3771L71.1282 16.2076V16.3898V19.3051C71.1282 19.8517 70.7653 20.2161 70.2209 20.2161L64.4221 17.6653C63.8777 17.6653 63.5148 17.3008 63.5148 16.7542V13.5593C63.5148 13.0127 63.8777 12.6483 64.4221 12.6483H69.1321ZM30.1223 44.267C32.1183 44.267 33.7515 42.6271 33.7515 40.6229C33.7515 38.6186 32.1183 36.9788 30.1223 36.9788C28.1262 36.9788 26.4931 38.6186 26.4931 40.6229C26.4931 42.6271 28.1262 44.267 30.1223 44.267ZM82.3826 34.428C85.8304 34.428 88.7337 37.3432 88.7337 40.8051C88.7337 44.267 85.8304 47.1822 82.3826 47.1822C78.9349 47.1822 76.0316 44.267 76.0316 40.8051C76.0316 37.161 78.7535 34.428 82.3826 34.428ZM82.3826 44.267C84.3787 44.267 86.0118 42.6271 86.0118 40.6229C86.0118 38.6186 84.3787 36.9788 82.3826 36.9788C80.3866 36.9788 78.7535 38.6186 78.7535 40.6229C78.7535 42.6271 80.3866 44.267 82.3826 44.267ZM16 13H46V11H16V13Z" fill="#222D48"/>
</svg>
