<svg width="24" height="25" viewBox="0 0 24 25" fill="none" xmlns="http://www.w3.org/2000/svg">
<path fill-rule="evenodd" clip-rule="evenodd" d="M9 2.38965H15V4.38965H9V2.38965ZM11 15.3896V9.38965H13V15.3896H11ZM19.03 8.76964L20.45 7.34964C20.02 6.83964 19.55 6.35964 19.04 5.93964L17.62 7.35964C16.07 6.11964 14.12 5.37964 12 5.37964C7.03 5.37964 3 9.40964 3 14.3796C3 19.3496 7.02 23.3796 12 23.3796C16.98 23.3796 21 19.3496 21 14.3796C21 12.2696 20.26 10.3196 19.03 8.76964ZM5 14.3896C5 18.2596 8.13 21.3896 12 21.3896C15.87 21.3896 19 18.2596 19 14.3896C19 10.5196 15.87 7.38965 12 7.38965C8.13 7.38965 5 10.5196 5 14.3896Z" fill="#67BB66"/>
</svg>
