<svg width="95" height="54" viewBox="0 0 95 54" fill="none" xmlns="http://www.w3.org/2000/svg">
<path d="M84.4365 43.4064C84.4365 40.4766 81.952 37.9921 79.0222 37.9921C76.0736 37.9921 73.6078 40.3119 73.6078 43.4064C73.6078 46.3362 76.0924 48.8207 79.0222 48.8207C81.952 48.8207 84.4365 46.3362 84.4365 43.4064ZM83.6875 43.2231C83.6875 45.7914 81.5904 47.8885 79.0222 47.8885C76.454 47.8885 74.3568 45.7914 74.3568 43.2231C74.3568 40.6549 76.454 38.5578 79.0222 38.5578C81.5904 38.5578 83.6875 40.6549 83.6875 43.2231Z" stroke="#222D48" stroke-width="2"/>
<path d="M32.0225 43.4064C32.0225 40.4766 29.5379 37.9921 26.6081 37.9921C23.4951 37.9921 21.1938 40.2934 21.1938 43.4064C21.1938 46.3362 23.6783 48.8207 26.6081 48.8207C29.5379 48.8207 32.0225 46.3362 32.0225 43.4064ZM31.2735 43.2231C31.2735 45.7914 29.1763 47.8885 26.6081 47.8885C24.0399 47.8885 21.9428 45.7914 21.9428 43.2231C21.9428 40.6549 24.0399 38.5578 26.6081 38.5578C29.1763 38.5578 31.2735 40.6549 31.2735 43.2231Z" stroke="#222D48" stroke-width="2"/>
<path d="M5.79913 36.992V37.992H4.79913H2.31706V39.1076H4.9824H5.9824V40.1076V41.1235H16.8353C17.4462 38.6248 18.2147 36.5524 19.6063 35.0888C21.1957 33.4172 23.4357 32.6932 26.6079 32.6932C29.8002 32.6932 31.993 33.4738 33.5522 35.1698C34.9077 36.6442 35.6758 38.7083 36.3517 41.1235H69.2497C69.8605 38.6248 70.629 36.5524 72.0206 35.0888C73.61 33.4172 75.85 32.6932 79.0222 32.6932C82.2145 32.6932 84.4073 33.4738 85.9666 35.1698C87.3221 36.6442 88.0902 38.7083 88.7661 41.1235H90.2015C90.5122 41.1235 90.8478 41.0327 91.3119 40.8818L91.6936 40.5001L91.8084 40.3853L91.9535 40.3127C92.0244 40.2773 92.0767 40.2322 92.1047 40.1948C92.1172 40.1782 92.1235 40.1651 92.1269 40.1552C92.1301 40.1462 92.1338 40.1319 92.1338 40.1076V37.3792C92.1336 37.3787 92.1334 37.3782 92.1331 37.3777C92.1255 37.3614 92.1094 37.336 92.0831 37.3097C92.0568 37.2834 92.0313 37.2672 92.0151 37.2596C92.0145 37.2594 92.0141 37.2592 92.0136 37.259H91.3011H90.3011V36.259C90.3011 35.533 90.3254 35.0506 90.3476 34.6089C90.3862 33.8425 90.4186 33.1985 90.3074 31.6181C90.2417 31.2832 90.0529 30.95 89.7743 30.6691C89.8573 30.841 89.9099 31.0368 89.9176 31.2544C90.101 33.2754 90.1019 33.6775 90.1019 35.3426C90.1019 35.6092 90.0324 35.8757 89.8767 36.1092C89.7252 36.3365 89.5303 36.4756 89.3659 36.5578C89.2053 36.638 89.0569 36.6732 88.9571 36.6898C88.9048 36.6985 88.859 36.7033 88.8224 36.7059C88.8039 36.7072 88.7873 36.708 88.7728 36.7085L88.7526 36.709L88.7436 36.7091L88.7394 36.7092L88.7374 36.7092L88.7364 36.7092C88.7359 36.7092 88.7354 36.7092 88.7354 35.7092L88.7354 36.7092H88.7354H88.7353H88.7353H88.7352H88.7352H88.7351H88.735H88.7349H88.7348H88.7346H88.7345H88.7343H88.7342H88.734H88.7338H88.7336H88.7334H88.7332H88.7329H88.7327H88.7324H88.7321H88.7319H88.7316H88.7312H88.7309H88.7306H88.7303H88.7299H88.7295H88.7292H88.7288H88.7284H88.728H88.7275H88.7271H88.7267H88.7262H88.7258H88.7253H88.7248H88.7243H88.7238H88.7233H88.7227H88.7222H88.7216H88.7211H88.7205H88.7199H88.7193H88.7187H88.7181H88.7175H88.7168H88.7162H88.7155H88.7149H88.7142H88.7135H88.7128H88.7121H88.7114H88.7107H88.7099H88.7092H88.7084H88.7077H88.7069H88.7061H88.7053H88.7045H88.7037H88.7029H88.702H88.7012H88.7003H88.6995H88.6986H88.6977H88.6968H88.6959H88.695H88.6941H88.6932H88.6923H88.6913H88.6904H88.6894H88.6884H88.6874H88.6865H88.6855H88.6845H88.6834H88.6824H88.6814H88.6803H88.6793H88.6782H88.6772H88.6761H88.675H88.6739H88.6728H88.6717H88.6706H88.6695H88.6683H88.6672H88.666H88.6649H88.6637H88.6626H88.6614H88.6602H88.659H88.6578H88.6566H88.6554H88.6541H88.6529H88.6517H88.6504H88.6491H88.6479H88.6466H88.6453H88.644H88.6428H88.6415H88.6401H88.6388H88.6375H88.6362H88.6348H88.6335H88.6322H88.6308H88.6294H88.6281H88.6267H88.6253H88.6239H88.6225H88.6211H88.6197H88.6183H88.6169H88.6154H88.614H88.6125H88.6111H88.6096H88.6082H88.6067H88.6052H88.6038H88.6023H88.6008H88.5993H88.5978H88.5963H88.5948H88.5932H88.5917H88.5902H88.5886H88.5871H88.5855H88.584H88.5824H88.5809H88.5793H88.5777H88.5761H88.5745H88.5729H88.5713H88.5697H88.5681H88.5665H88.5649H88.5633H88.5616H88.56H88.5584H88.5567H88.5551H88.5534H88.5518H88.5501H88.5484H88.5468H88.5451H88.5434H88.5417H88.54H88.5383H88.5366H88.5349H88.5332H88.5315H88.5298H88.5281H88.5263H88.5246H88.5229H88.5211H88.5194H88.5176H88.5159H88.5141H88.5124H88.5106H88.5089H88.5071H88.5053H88.5035H88.5018H88.5H88.4982H88.4964H88.4946H88.4928H88.491H88.4892H88.4874H88.4856H88.4838H88.482H88.4802H88.4783H88.4765H88.4747H88.4729H88.471H88.4692H88.4673H88.4655H88.4637H88.4618H88.46H88.4581H88.4563H88.4544H88.4525H88.4507H88.4488H88.4469H88.4451H88.4432H88.4413H88.4395H88.4376H88.4357H88.4338H88.4319H88.43H88.4282H88.4263H88.4244H88.4225H88.4206H88.4187H88.4168H88.4149H88.413H88.4111H88.4092H88.4073H88.4054H88.4034H88.4015H88.3996H88.3977H88.3958H88.3939H88.392H88.39H88.3881H88.3862H88.3843H88.3824H88.3804H88.3785H88.3766H88.3747H88.3727H88.3708H88.3689H88.367H88.365H88.3631H88.3612H88.3592H88.3573H88.3554H88.3534H88.3515H88.3496H88.3476H88.3457H88.3438H88.3418H88.3399H88.338H88.336H88.3341H88.3322H88.3302H88.3283H88.3264H88.3245H88.3225H88.3206H88.3187H88.3167H88.3148H88.3129H88.3109H88.309H88.3071H88.3052H88.3032H88.3013H88.2994H88.2975H88.2955H88.2936H88.2917H88.2898H88.2879H88.2859H88.284H88.2821H88.2802H88.2783H88.2764H88.2745H88.2725H88.2706H88.2687H88.2668H88.2649H88.263H88.2611H88.2592H88.2573H88.2554H88.2535H88.2517H88.2498H88.2479H88.246H88.2441H88.2422H88.2404H88.2385H88.2366H88.2347H88.2329H88.231H88.2291H88.2273H88.2254H88.2235H88.2217H88.2198H88.218H88.2161H88.2143H88.2124H88.2106H88.2088H88.2069H88.2051H88.2033H88.2014H88.1996H88.1978H88.196H88.1942H88.1924H88.1906H88.1888H88.1869H88.1852H88.1834H88.1816H88.1798H88.178H88.1762H88.1744H88.1727H88.1709H88.1691H88.1674H88.1656H88.1639H88.1621H88.1604H88.1586H88.1569H88.1551H88.1534H88.1517H88.15H88.1482H88.1465H88.1448H88.1431H88.1414H88.1397H88.138H88.1363H88.1346H88.133H88.1313H88.1296H88.128H88.1263H88.1246H88.123H88.1213H88.1197H88.1181H88.1164H88.1148H88.1132H88.1116H88.11H88.1084H88.1068H88.1052H88.1036H88.102H88.1004H88.0988H88.0973H88.0957H88.0941H88.0926H88.091H88.0895H88.088H88.0864H88.0849H88.0834H88.0819H88.0804H88.0789H88.0774H88.0759H88.0744H88.0729H88.0715H88.07H88.0685H88.0671H88.0656H88.0642H88.0628H88.0613H88.0599H88.0585H88.0571H88.0557H88.0543H88.0529H88.0515H88.0502H88.0488H88.0474H88.0461H88.0447H88.0434H88.0421H88.0407H88.0394H88.0381H88.0368H88.0355H88.0342H88.033H88.0317H88.0304H88.0291H88.0279H88.0267H88.0254H88.0242H88.023H88.0217H88.0205H88.0193H88.0182H88.017H88.0158H88.0146H88.0135H88.0123H88.0112H88.01H88.0089H88.0078H88.0067H88.0056H88.0045H88.0034H88.0023C87.6802 36.7092 87.4296 36.5696 87.343 36.5201C87.2195 36.4496 87.1112 36.3685 87.034 36.3068C86.9529 36.2419 86.8829 36.1795 86.8344 36.1347C86.8096 36.1118 86.7891 36.0923 86.774 36.0778L86.7554 36.0597L86.7493 36.0536L86.7471 36.0514L86.7462 36.0505L86.7458 36.0501L86.7456 36.0499C86.7455 36.0498 86.7454 36.0497 87.4525 35.3426L86.7454 36.0497L86.7062 36.0106L86.6716 35.9673L85.9707 35.0912C85.7507 34.8645 85.5582 34.6088 85.45 34.2844C85.351 33.9873 85.3522 33.7004 85.3528 33.5429C85.3529 33.5312 85.3529 33.5202 85.3529 33.51V32.51H85.5362V31.494C85.5362 30.9855 85.7804 30.5607 86.0582 30.2829C86.3176 30.0235 86.7053 29.7933 87.1697 29.7641C83.0927 29.035 78.3998 28.4618 73.3228 27.8417C72.0283 27.6836 70.7089 27.5224 69.3683 27.3548L69.0099 27.31L68.7628 27.0465C66.1763 24.2876 64.2575 22.6896 62.1711 20.9522C62.0837 20.8794 61.9959 20.8063 61.9078 20.7329C61.5236 20.445 61.4438 20.3926 61.3661 20.358C61.2883 20.3235 61.1932 20.2983 60.7448 20.2082C58.2143 20.0325 53.9091 20.0319 51.3489 20.0319C50.8912 20.0319 50.6023 20.2613 50.5072 20.6475C50.4787 20.9853 50.4425 21.3811 50.4015 21.8289C50.1689 24.3723 49.7832 28.5883 49.7832 33.3267V36.0757V37.0757H48.7832H46.7673H45.7673V36.0757V24.4303H44.0183H43.5521H43.0183H42.5521H9.56407H9.09793H8.56407H8.09793H5.79913V33.1434V33.3267V36.992ZM44.0183 16.0159H55.2971V16H5.79913V16.0159H8.09793H8.56407H9.09793H9.56407H42.5521H43.0183H43.5521H44.0183ZM55.7314 31.012C55.2935 31.012 54.8222 30.8252 54.4707 30.5792C54.1208 30.3342 53.6318 29.842 53.6318 29.0956V24.5976C53.6318 23.968 53.9492 23.4824 54.294 23.1807C54.6199 22.8956 55.0746 22.6813 55.5481 22.6813C56.2258 22.6813 57.1749 22.7291 58.0419 22.7991C58.8094 22.861 59.5968 22.9465 60.0771 23.0483C60.1891 23.0518 60.3643 23.0666 60.5307 23.122C60.6874 23.1743 60.9095 23.2831 61.0869 23.5112C61.1194 23.553 61.148 23.5957 61.173 23.6389C61.3366 23.8043 61.4591 23.9848 61.554 24.1439C61.6986 24.3864 61.8313 24.6716 61.9543 24.9367L61.9747 24.9808C62.2263 25.5233 62.5204 26.1576 63.0097 26.8915C63.5205 27.6578 63.5441 28.2389 63.5441 28.5458V28.5469V28.548V28.5491V28.5501V28.5512V28.5523V28.5534V28.5545V28.5556V28.5568V28.5579V28.559V28.5601V28.5612V28.5624V28.5635V28.5647V28.5658V28.5669V28.5681V28.5693V28.5704V28.5716V28.5727V28.5739V28.5751V28.5763V28.5774V28.5786V28.5798V28.581V28.5822V28.5834V28.5846V28.5858V28.587V28.5882V28.5894V28.5906V28.5919V28.5931V28.5943V28.5955V28.5968V28.598V28.5993V28.6005V28.6017V28.603V28.6042V28.6055V28.6068V28.608V28.6093V28.6105V28.6118V28.6131V28.6144V28.6156V28.6169V28.6182V28.6195V28.6208V28.6221V28.6234V28.6246V28.6259V28.6272V28.6286V28.6299V28.6312V28.6325V28.6338V28.6351V28.6364V28.6377V28.6391V28.6404V28.6417V28.643V28.6444V28.6457V28.6471V28.6484V28.6497V28.6511V28.6524V28.6538V28.6551V28.6565V28.6578V28.6592V28.6605V28.6619V28.6632V28.6646V28.666V28.6673V28.6687V28.6701V28.6714V28.6728V28.6742V28.6756V28.6769V28.6783V28.6797V28.6811V28.6825V28.6839V28.6853V28.6866V28.688V28.6894V28.6908V28.6922V28.6936V28.695V28.6964V28.6978V28.6992V28.7006V28.702V28.7034V28.7048V28.7062V28.7076V28.709V28.7104V28.7119V28.7133V28.7147V28.7161V28.7175V28.7189V28.7203V28.7218V28.7232V28.7246V28.726V28.7274V28.7289V28.7303V28.7317V28.7331V28.7346V28.736V28.7374V28.7388V28.7403V28.7417V28.7431V28.7445V28.746V28.7474V28.7488V28.7503V28.7517V28.7531V28.7545V28.756V28.7574V28.7588V28.7603V28.7617V28.7631V28.7646V28.766V28.7674V28.7689V28.7703V28.7717V28.7732V28.7746V28.776V28.7774V28.7789V28.7803V28.7817V28.7832V28.7846V28.786V28.7875V28.7889V28.7903V28.7917V28.7932V28.7946V28.796V28.7975V28.7989V28.8003V28.8017V28.8032V28.8046V28.806V28.8074V28.8089V28.8103V28.8117V28.8131V28.8145V28.816V28.8174V28.8188V28.8202V28.8216V28.823V28.8245V28.8259V28.8273V28.8287V28.8301V28.8315V28.8329V28.8343V28.8357V28.8371V28.8385V28.84V28.8414V28.8428V28.8442V28.8455V28.8469V28.8483V28.8497V28.8511V28.8525V28.8539V28.8553V28.8567V28.8581V28.8594V28.8608V28.8622V28.8636V28.865V28.8663V28.8677V28.8691V28.8705V28.8718V28.8732V28.8746V28.8759V28.8773V28.8786V28.88V28.8814V28.8827V28.8841V28.8854V28.8868V28.8881V28.8894V28.8908V28.8921V28.8935V28.8948V28.8961V28.8975V28.8988V28.9001V28.9014V28.9028V28.9041V28.9054V28.9067V28.908V28.9093V28.9106V28.9119V28.9132V28.9145V28.9158V28.9171V28.9184V28.9197V28.921V28.9223V28.9236V28.9248V28.9261V28.9274V28.9287V28.9299V28.9312V28.9324V28.9337V28.935V28.9362V28.9375V28.9387V28.94V28.9412V28.9424V28.9437V28.9449V28.9461V28.9473V28.9486V28.9498V28.951V28.9522V28.9534V28.9546V28.9558V28.957V28.9582V28.9594V28.9606V28.9618V28.963V28.9641V28.9653V28.9665V28.9677V28.9688V28.97V28.9711V28.9723V28.9734V28.9746V28.9757V28.9769V28.978V28.9791V28.9802V28.9814V28.9825V28.9836V28.9847V28.9858V28.9869V28.988V28.9891V28.9902V28.9913V28.9924V28.9934V28.9945V28.9956V28.9967V28.9977V28.9988V28.9998V29.0009V29.0019V29.0029V29.004V29.005V29.006V29.0071V29.0081V29.0091V29.0101V29.0111V29.0121V29.0131V29.0141V29.0151V29.016V29.017V29.018V29.019V29.0199V29.0209V29.0218V29.0228V29.0237V29.0246V29.0256V29.0265V29.0274V29.0283V29.0292V29.0302V29.0311V29.032V29.0328V29.0337V29.0346V29.0355V29.0364V29.0372V29.0381V29.0389V29.0398V29.0406V29.0415V29.0423V29.0431V29.0439V29.0448V29.0456V29.0464V29.0472V29.048V29.0488V29.0495V29.0503V29.0511V29.0519V29.0526V29.0534V29.0541V29.0549V29.0556V29.0563V29.057V29.0578V29.0585V29.0592V29.0599V29.0606V29.0613V29.062V29.0626V29.0633V29.064V29.0646V29.0653V29.0659V29.0666V29.0672V29.0678V29.0684V29.0691V29.0697V29.0703V29.0709V29.0715V29.072V29.0726V29.0732V29.0738V29.0743V29.0749V29.0754V29.0759V29.0765V29.077V29.0775V29.078V29.0785V29.079V29.0795V29.08V29.0805V29.0809V29.0814V29.0819V29.0823V29.0827V29.0832V29.0836V29.084V29.0844V29.0849V29.0853V29.0856V29.086V29.0864V29.0868V29.0871V29.0875V29.0878V29.0882V29.0885V29.0888V29.0892V29.0895V29.0898V29.0901V29.0904V29.0907V29.0909V29.0912V29.0915V29.0917V29.092V29.0922V29.0924V29.0926V29.0929V29.0931V29.0933V29.0934V29.0936V29.0938V29.094V29.0941V29.0943V29.0944V29.0946V29.0947V29.0948V29.0949V29.095V29.0951V29.0952V29.0953V29.0954V29.0954V29.0955V29.0955V29.0956V29.0956V29.0956C63.5441 30.0475 62.869 31.012 61.8111 31.012H55.7314Z" stroke="#222D48" stroke-width="2"/>
<line x1="12.1338" y1="28" x2="40.1338" y2="28" stroke="#222D48" stroke-width="2"/>
</svg>
